<svg version="1" xmlns="http://www.w3.org/2000/svg" width="230" height="230" viewBox="0 0 230 230"><path d="M98.5 28.1c-5.4 1.3-6.3 2.5-2.3 3.3 1.8.3 4.6 1.3 6.1 2.1 1.6.8 4.7 2 7 2.6 5.7 1.5 17.7 7 17.7 8 0 .5.5.9 1.1.9.7 0 4.6 2.6 8.7 5.7 7.4 5.7 13 11.9 16.5 18.3l1.7 3.2 3.4-2.1c6.9-4.3 6.2-2-2.2 7-3.8 4.1-7.1 7.9-7.3 8.5-.2.6-7.7 8.7-16.6 18L116 120.5 98.5 103C82.1 86.5 81 85.2 80.5 81c-1-6.8-2.2-9.3-7.3-14.3L68.4 62l-6.9 7-6.9 7 4.3 4c5.6 5.2 8.8 6.9 14.2 7.2 4.2.3 5 .9 22.1 18.2l17.8 18-7.7 8c-4.3 4.5-13 13.5-19.4 20.1-32.3 33.3-33.4 34.5-31.1 35.3.9.3 8.2-7 46.8-46.6l13.9-14.3 16.5 16.5c9.1 9.2 16.7 17.1 16.9 17.7.2.6-2 3.3-4.8 6s-5.1 5.5-5.1 6.2c0 .7 4 5.2 8.9 10 11.3 11.1 17.2 14 28.7 14.4 11.5.3 11.9-.1 11.9-12.4 0-8.8-.3-10.3-2.9-15.2-1.5-3-6.7-9.5-11.5-14.4l-8.8-9-6.2 5.7c-5.3 4.9-6.5 5.5-7.8 4.5-3.3-2.8-31.8-32-32.2-33-.3-1 30.2-32.8 32.5-33.9 1-.5 10-8 14.9-12.5 3-2.7 4-8.6 2.1-12.2-1.8-3.4-8.5-10.5-14.5-15.3-2.4-1.9-4.9-4.1-5.6-4.8-.8-.6-1.6-1.2-1.9-1.2-.3 0-2.9-1.5-5.9-3.4-6.1-3.9-17.2-9.2-23.7-11.2-5-1.5-12.5-1.7-18.5-.3zm861.3 2033.5c6.8 7.2 4.7 15.2-3.5 13.6-1.4-.3-4.1-2-5.9-3.9l-3.3-3.4 4.4-4.5c2.4-2.5 4.7-4.5 5-4.5.4 0 1.8 1.2 3.3 2.7z"/></svg>