<svg viewBox="0 0 100 100" xmlns="http://www.w3.org/2000/svg"><path d="M50 5C25.147 5 5 25.147 5 50s20.147 45 45 45 45-20.147 45-45S74.853 5 50 5zm-.536 19.312c.145-.619.708-.896.807-.945.259-.128.49-.147.954-.187 0 0 .399-.026.749-.016 11.898.319 22.174 8.766 23.654 21.562.099.855.268 1.866.317 3.948.01.417.017 1.174-.495 1.662a1.54 1.54 0 0 1-.681.366c-.257-.057-.662-.187-.973-.528-.421-.462-.444-1.063-.455-1.269a39.383 39.383 0 0 0-.988-6.909c-1.978-8.397-9.601-15.024-18.188-15.984-.998-.112-1.999-.222-3.002-.268-.68-.031-1.356-.157-1.622-.613-.193-.335-.098-.728-.077-.819zm4.673 7.907c-.022-.004-.501-.007-1.107-.166-.477-.125-.849-.228-1.132-.555-.268-.31-.341-.69-.352-.974.061-.219.19-.548.487-.788.419-.339.948-.319 1.197-.307 7.013.35 11.166 4.411 11.166 4.411.36.352 1.867 1.858 3.178 4.301a19.111 19.111 0 0 1 2.184 7.369c.036.383.026.951-.238 1.535-.109.24-.232.505-.521.714a1.502 1.502 0 0 1-.894.271 1.635 1.635 0 0 1-.606-.39c-.257-.266-.375-.556-.388-.676-.37-3.219-.874-6.363-2.854-9.082-2.514-3.45-6.074-4.979-10.12-5.663zm9.171 12.232c-.068.933-.447 1.277-.542 1.358a1.5 1.5 0 0 1-.808.327 1.585 1.585 0 0 1-.818-.408c-.391-.387-.441-.919-.461-1.093-.093-.807-.672-3.389-1.993-4.58-.826-.745-1.967-1.138-3.636-1.38-.67-.097-1.32-.233-1.555-.677-.179-.339-.057-.722-.02-.843.274-.884 1.346-1.139 1.431-1.157.712.1 5.263.801 7.344 4.185 1.126 1.831 1.096 3.747 1.058 4.268zm12.533 25.066c-1.707 2.079-3.356 4.268-5.378 6.008-1.736 1.493-4.006 1.673-6.265.75-18.559-7.577-31.87-20.459-39.547-39.051-.193-.466-.349-.948-.513-1.425-1.437-4.173-1.004-5.794 2.42-8.601 1.119-.918 2.317-1.749 3.532-2.538 2.042-1.326 4.288-1.31 5.832.55 2.566 3.093 5.014 6.329 7.12 9.746 1.572 2.551 1.01 3.995-1.297 5.916-.533.444-1.105.842-1.639 1.285-1.335 1.109-1.899 2.431-1.31 4.185 2.581 7.69 7.967 12.552 15.475 15.135.873.3 2.237-.374 3.192-.916.713-.405 1.131-1.327 1.683-2.017 1.491-1.865 3.903-2.654 5.894-1.391 3.559 2.258 6.969 4.766 10.314 7.335.717.551.891 1.808 1.278 2.657-.313.991-.356 1.842-.791 2.372z" fill="#7D51A0"/></svg>