<svg width="298" height="420" viewBox="0 0 298 420" xmlns="http://www.w3.org/2000/svg"><title>Slice 1</title><g fill="none" fill-rule="evenodd"><path d="M27.383 386.266L.313 82.646h297.45l-27.098 303.571-121.809 33.769-121.473-33.72zm0 0" fill="#E44F26"/><path d="M149.038 394.175l98.427-27.288 23.158-259.416H149.038v286.704zm0 0" fill="#F1662A"/><path d="M149.038 220.08H99.763l-3.404-38.132h52.679v-37.239H55.663l.892 9.991 9.152 102.616h83.331V220.08zm0 96.708l-.163.046-41.472-11.199-2.652-29.698h-37.38l5.217 58.467 76.278 21.176.172-.048v-38.744zm0 0" fill="#EBEBEB"/><path d="M27.988.135h18.924v18.696h17.311V.135h18.925v56.618H64.224V37.795h-17.31v18.958H27.988V.135zm80.044 18.775h-16.66V.135h52.252V18.91h-16.667v37.843h-18.924V18.91h-.001zM151.917.135h19.733l12.137 19.894L195.914.135h19.739v56.618h-18.846V28.69l-13.021 20.13h-.325l-13.028-20.13v28.063h-18.517V.135h.001zm73.154 0H244v37.903h26.612v18.714H225.07V.135h.001zm0 0" fill="#010101"/><path d="M148.909 220.08v37.236h45.854l-4.322 48.294-41.532 11.21v38.742l76.34-21.158.559-6.29 8.751-98.035.908-9.999h-86.558zm0-75.371v37.239h89.947l.747-8.37 1.696-18.878.891-9.991h-93.281zm0 0" fill="#FFF"/></g></svg>