<svg xmlns="http://www.w3.org/2000/svg" width="192" height="96"><path d="M15.158 20.198h28.408c8.339.07 14.38 2.473 18.126 7.208 3.745 4.735 4.982 11.2 3.71 19.398-.495 3.745-1.59 7.42-3.286 11.024-1.625 3.604-3.887 6.855-6.784 9.752-3.533 3.675-7.314 6.007-11.342 6.996-4.028.99-8.197 1.484-12.508 1.484h-12.72L14.734 96.2H0l15.158-76.002M27.56 32.282l-6.36 31.8c.424.07.848.106 1.272.106h1.484c6.784.07 12.437-.6 16.96-2.014 4.523-1.484 7.561-6.643 9.116-15.476 1.272-7.42 0-11.695-3.816-12.826-3.745-1.13-8.445-1.66-14.098-1.59-.848.07-1.66.106-2.438.106h-2.226l.106-.106M82.186-.048h14.628L92.68 20.198h13.144c7.208.141 12.579 1.625 16.112 4.452 3.604 2.827 4.664 8.197 3.18 16.112l-7.102 35.298h-14.84l6.784-33.708c.707-3.533.495-6.042-.636-7.526-1.13-1.484-3.569-2.226-7.314-2.226l-11.766-.106L81.55 76.06H66.922L82.186-.048m58.638 20.246h28.408c8.339.07 14.38 2.473 18.126 7.208 3.745 4.735 4.982 11.2 3.71 19.398-.495 3.745-1.59 7.42-3.286 11.024-1.625 3.604-3.887 6.855-6.784 9.752-3.533 3.675-7.314 6.007-11.342 6.996-4.028.99-8.197 1.484-12.508 1.484h-12.72L140.4 96.2h-14.734l15.158-76.002m12.402 12.084l-6.36 31.8c.424.07.848.106 1.272.106h1.484c6.784.07 12.437-.6 16.96-2.014 4.523-1.484 7.561-6.643 9.116-15.476 1.272-7.42 0-11.695-3.816-12.826-3.745-1.13-8.445-1.66-14.098-1.59-.848.07-1.66.106-2.438.106h-2.226l.106-.106"/></svg>