<svg xmlns="http://www.w3.org/2000/svg" width="559.458" height="132.735"><path d="M259.762 46.172l.001-.005-3.352 11.88 3.351-11.875zm17.24 25.791l-3.694-.022 3.694.022zm-.946 17.741l-22.131.081 22.127-.08zm4.641-17.719l-3.695-.022 3.695.022zM278 88.196l3.855-14.702L278 88.198v-.002zm81.478-67.706l-7.182 33.76 7.182-33.76zm-18.465 0l-5.452 25.222 5.452-25.224v.003z" fill="#222"/><path d="M358.25 18.972h-15.357c-.852 0-1.698.684-1.88 1.516l-5.452 25.224-5.451 25.22c-.18.833-1.026 1.514-1.878 1.514h-10.869c-10.753 0-9.509-7.436-7.307-17.626l.066-.307.242-1.286.045-.241.49-2.615.527-2.803c.16-.844.403-2.08.561-2.856l2.478-12.11 2.481-12.109c.17-.835-.39-1.521-1.24-1.521h-15.762c-.852 0-1.696.686-1.87 1.519l-3.389 16.079-3.389 16.076v.025l-.314 1.494c-3.904 17.822-2.869 34.817 18.347 35.349.346.01.615.012.615.012h33.302c.852 0 1.695-.683 1.874-1.518l7.181-33.756 7.182-33.761c.177-.835-.376-1.519-1.229-1.519m61.253 53.65c.852 0 1.411.684 1.24 1.519l-1.492 7.287m-1.491 7.292l1.491-7.292-1.491 7.295v-.002m-1.864 1.533l.013-.003c-4.519.037-18.098.14-28.305.14 12.422 0 28.298-.137 28.298-.137m-37.471-27.019c-.012-.799.896-2.172 1.75-2.172l-1.918-.033c-.865 8.692.168 2.205.168 2.205" fill="#222"/><path d="M388.994 90.388c-.097 0-.198 0-.295.003.097-.003.197-.003.295-.003m30.513-17.766c.852 0 1.411.684 1.24 1.519l-1.492 7.287-.244 1.19m-22.746 7.753h-.064.064zm-3.767.012h-.22.22zm-1.15.003c-.123 0-.242 0-.362.002.12-.002.24-.002.362-.002m-1.172.002h-.318.318zm2.102-.005l-.93.003.93-.003m3.923-.012c-1.243.005-2.483.01-3.703.012 1.22-.002 2.463-.007 3.703-.012m19.707-.12a5050.49 5050.49 0 0 1-.002 0m1.858-1.528l1.247-6.106-1.25 6.11v-.004m-26.775 1.665h-.81.81zm-2.287.002h-1.096 1.096zm1.159-.002h-.864.864zm-224.636-26.97l2.388-10.574-2.728 12.088-2.619 12.312 2.295-10.794c.177-.835.477-2.2.664-3.032m28.558-44.624h-16.866c-.852 0-1.704.681-1.893 1.511l-1.6 7.058-1.597 7.06c-.19.83.354 1.512 1.206 1.512h16.996c.852 0 1.7-.681 1.882-1.514l1.544-7.058L195 20.31v-.003c.18-.832-.366-1.513-1.22-1.513m-3.673 23.479v-.003l-4.946 22.885 4.946-22.882zm-48.991 75.817s8.498.11 13.904.11c-4.107 0-10.887-.075-13.912-.112 0 0 0 .003.013.003m28.875-75.821l-2.387 10.574 2.387-10.574z" fill="#222"/><path d="M188.884 40.757h-16.996c-.852 0-1.702.68-1.892 1.513l-2.387 10.574-2.387 10.574c-.188.832-.486 2.198-.664 3.032l-2.292 10.794-2.295 10.793a32.5 32.5 0 0 1-.816 2.986s-3.176 9.448-8.515 9.34c-.225-.004-.447-.007-.667-.012-2.585-.049-4.617-.085-4.617-.085-.85-.013-1.706.651-1.905 1.48l-1.763 7.409-1.759 7.407c-.198.828.336 1.511 1.183 1.526 3.026.037 9.808.112 13.912.112 13.335 0 20.363-7.388 24.871-28.647l5.272-24.398 4.946-22.885c.18-.833-.37-1.514-1.224-1.514m241.451 48.77c-.853 0-1.404-.683-1.226-1.518l12.785-59.89m6.211 59.887l5.171-25.561-5.17 25.561z" fill="#222"/><path d="M429.302 88.767c-.105-.418-.044-1.44.136-2.275l6.07-28.428-6.394 29.944c-.178.835.373 1.518 1.225 1.518h1.553c-.852 0-2.488-.342-2.59-.759m17.795.417c-.464.188-1.543.342-2.397.342h1.552c.852 0 1.69-.683 1.86-1.52l.306-1.52c-.169.836-.857 2.51-1.32 2.698m3.598-13.96l2.282-11.281v.023l-2.277 11.259zm50.449-43.095l.703 2.91c.195.832-.344 1.509-1.194 1.511m-52.236 49.937l2.278-11.263-2.278 11.263z" fill="#222"/><path d="M500.447 29.148l.698 2.982-.698-2.982zm-47.469 34.795c.169-.835.45-2.188.628-3.015l2.436-11.421-2.76 12.937-.304 1.499zm-10.871-36.807c-.17.807-.388 1.824-.532 2.498l-6.067 28.43 6.391-29.946.208-.982z" fill="#222"/><path d="M501.848 35.039l-.703-2.91-.698-2.981-.352-1.509c-1.382-5.364-5.434-8.46-14.233-8.46l-13.701-.013-12.618-.016h-14.196c-.852 0-1.695.681-1.87 1.516l-.628 2.967-.74 3.504-.207.98-6.392 29.947-6.069 28.428c-.18.835-.242 1.858-.137 2.275.103.417 1.739.76 2.59.76h12.808c.855 0 1.934-.155 2.398-.343.464-.186 1.152-1.862 1.32-2.697l2.278-11.262 2.278-11.259v-.023l.303-1.498 2.761-12.938 2.44-11.425c.18-.83 1.02-1.509 1.872-1.511l40.3-.02c.85-.003 1.39-.68 1.194-1.512" fill="#222"/><path d="M553.723 8.725c-.854.007-2.248.012-3.103.012h-12.898c-.854 0-1.946.577-2.427 1.28L506.77 51.804c-.48.706-1.03.6-1.218-.228l-2.1-9.206c-.188-.833-1.042-1.512-1.894-1.512H483.22c-.854 0-1.36.67-1.125 1.488l8.215 28.785c.234.82.251 2.167.041 2.993l-3.584 13.93c-.21.828.313 1.504 1.167 1.504h18.123c.852 0 1.723-.676 1.936-1.504l3.581-13.93c.213-.826.806-2.06 1.319-2.742l46.306-61.459c.515-.68.237-1.234-.615-1.229l-4.861.032zM408.05 44.775v-.017c-.108.927-.96 1.605-1.812 1.605h-23.25c-.803 0-1.21-.548-1.093-1.222.012-.02.012-.035.022-.053 0 0-.012.002-.015.007 0-.027 0-.051.013-.078l.107-.395c2.22-5.904 6.743-9.777 15.242-9.777 9.57 0 11.438 4.674 10.788 9.93m-6.82-26.833c-29.842 0-36.913 18.113-40.88 36.394-3.967 18.633-3.625 36.055 27.256 36.055h1.096c.095-.003.195-.003.293-.003h1.992c.12-.002.24-.002.362-.002l.93-.003h.22c1.22-.002 2.46-.007 3.703-.012h.064a5050.49 5050.49 0 0 0 19.646-.12c.847-.013 1.677-.696 1.853-1.523l1.25-6.111.242-1.19 1.491-7.287c.171-.835-.388-1.518-1.24-1.518h-27.76c-11.043 0-14.321-2.935-13.113-11.56h44.378v.005c.012 0 .02-.005.028-.005.706-.012 1.358-.499 1.617-1.145.048-.124.09-.254.107-.387v.005c6.59-24.855 4.7-41.593-23.528-41.593M260.183 44.68l-.42 1.487-.001.005-3.35 11.875-3.35 11.872c-.232.82-1.119 1.492-1.973 1.492h-17.736c-13.453 0-16.73-10.522-13.453-26.042 3.276-15.873 9.697-25.743 22.938-26.741 18.095-1.365 21.714 11.362 17.345 26.052m12.163 25.818s8.362-20.303 10.261-32.031C285.195 22.77 277.34 0 246.98 0c-30.188 0-43.296 21.738-48.298 45.369-5.002 23.8 1.551 44.675 31.567 44.504l23.68-.09 22.13-.078c.853-.008 1.724-.684 1.941-1.507l3.855-14.704c.215-.826-.306-1.504-1.158-1.51l-3.695-.021-3.694-.022c-.725-.005-1.14-.474-1.052-1.096.016-.113.041-.227.09-.347" fill="#222"/><path d="M421.782 56.91a1.017 1.017 0 1 1-2.034.001 1.017 1.017 0 0 1 2.034-.002" fill="#222"/><path d="M0 26.775v36.794c0 27.094 22.223 49.057 49.636 49.057h12.41c27.414 0 49.636-21.963 49.636-49.057V26.775c0-6.775-5.555-12.266-12.41-12.266H12.41C5.555 14.51 0 20 0 26.775" fill="#fea620" fill-rule="evenodd"/><path d="M18.613 57.436c0 20.32 16.668 36.795 37.23 36.795 20.558 0 37.226-16.475 37.226-36.795H74.453c0 10.16-8.332 18.398-18.61 18.398-10.282 0-18.614-8.239-18.614-18.398V39.038H18.613v18.398zM79.109 28.92l-4.343 17.785 17.992 4.597 4.654-17.783-18.303-4.598z" fill="#fff" fill-rule="evenodd"/><path d="M338.756 127.1h-2.94l-.42-.84s-2.38 1.015-3.99 1.015c-4.515 0-4.375-3.674-3.57-7.35l1.505-7.14h3.36l-.665 5.53-.315 1.681c-.455 2.1-.735 3.64 1.47 3.64h2.52l2.346-10.85h3.745l-3.046 14.315zm16.52-10.92s-4.096.036-5.215.036c-2.38 0-2.626.735-2.8 1.505l-.14.7 7.56.56s.034 2.414-.28 3.78c-.456 2.274-2.8 4.585-7.035 4.585-2.1 0-5.496-.806-5.496-.806l.596-2.765h5.215c2.31 0 2.624-.63 2.765-1.26l.174-.909-7.42-.56s-.279-1.855.106-3.71c.56-2.52 2.87-4.69 7.104-4.69 2.101 0 5.496.77 5.496.77l-.63 2.764zm9.17-.174c-1.89 0-2.869.98-3.255 2.73l5.391-.455c.244-1.19 0-2.275-2.136-2.275zm-3.78 5.32c-.246 1.75.42 2.345 2.66 2.345h5.634l-.56 2.66s-3.395.944-5.915.944c-6.264 0-6.335-3.534-5.53-7.314.805-3.71 2.24-7.385 8.296-7.385 5.845 0 6.126 3.535 4.69 8.75h-9.276zm19.285-2.31c.49-2.24.35-2.66-.806-2.66h-1.75l-1.118 5.25-1.716 5.495h-3.255l2.659-12.46.386-1.82h2.976l.383.84s1.716-1.015 3.396-1.015c3.57 0 3.291 2.694 2.52 6.37h-3.675zM398.152 111c-1.436 0-2.346-.42-1.997-2.17.386-1.749 1.506-2.169 2.905-2.169 1.401 0 2.346.42 1.96 2.17-.349 1.715-1.47 2.17-2.868 2.17zm-1.54 16.1h-3.22l.629-5.6 1.12-5.18-2.24-.489.63-3.045h6.125L396.61 127.1zm15.434 0h-3.362l.63-5.53.352-1.574c.454-2.1.698-3.64-1.507-3.64h-2.52l-2.309 10.745h-3.745l3.044-14.315h2.94l.456.84s2.344-1.015 3.955-1.015c4.48 0 4.375 3.64 3.57 7.35l-1.504 7.14zm13.574-11.269l-4.023.49-1.155 5.46c-.315 1.505-.315 1.925 1.013 1.925h2.695l-.559 2.87s-2.45.735-3.5.735c-4.129 0-4.095-2.276-3.36-5.67l1.12-5.356-2.24-.49.666-3.044h2.344l1.33-3.606h3.186l-.771 3.606h3.92l-.666 3.08zm8.367.175c-1.89 0-2.871.98-3.257 2.73l5.39-.455c.247-1.19 0-2.275-2.133-2.275zm-3.782 5.32c-.244 1.75.42 2.345 2.661 2.345h5.635l-.56 2.66s-3.395.944-5.915.944c-6.264 0-6.335-3.534-5.53-7.314.806-3.71 2.24-7.385 8.294-7.385 5.847 0 6.126 3.535 4.69 8.75h-9.275zm19.285-2.31c.49-2.24.349-2.66-.806-2.66h-1.748l-1.12 5.25-1.717 5.495h-3.254l2.66-12.46.384-1.82h2.976l.386.84s1.714-1.015 3.394-1.015c3.569 0 3.29 2.694 2.52 6.37h-3.675zm16.73-8.4h-2.695c-1.435 0-1.54.91-1.818 2.205h3.64l-.63 3.044-3.85.525-2.312 10.78-1.748 5.565h-3.186l1.191-5.599 2.31-10.78-2.242-.49.63-3.045h2.346c.735-3.325 1.856-5.985 5.88-5.985 1.05 0 3.115.875 3.115.875l-.63 2.905zm6.336 5.669c-2.1 0-2.837 1.366-3.325 3.676-.49 2.345-.315 3.605 1.785 3.605h2.94l1.505-7.28h-2.905zm6.299 2.03l-1.856 8.786h-2.905l-.454-.98s-2.52 1.154-4.375 1.154c-4.446 0-4.69-3.534-3.884-7.314.769-3.71 2.554-7.385 7.034-7.385 2.905 0 7.49.805 7.49.805l-1.05 4.934zm14.316-2.064h-4.306c-2.17 0-3.465 1.54-3.955 3.745-.454 2.17.246 3.675 2.485 3.675h4.48l-.596 2.8s-3.15.84-5.564.84c-4.445 0-5.459-3.57-4.655-7.315.805-3.78 3.325-7.42 7.666-7.42 2.133 0 5.11.77 5.11.77l-.665 2.905zm8.562-.245c-1.89 0-2.868.98-3.254 2.73l5.39-.455c.245-1.19 0-2.275-2.136-2.275zm-3.779 5.32c-.244 1.75.42 2.345 2.659 2.345h5.637l-.562 2.66s-3.393.944-5.915.944c-6.265 0-6.333-3.534-5.53-7.314.806-3.71 2.241-7.385 8.296-7.385 5.845 0 6.126 3.535 4.69 8.75h-9.275z" fill="#fea620"/></svg>