<?xml version="1.0" standalone="no"?>
<!DOCTYPE svg PUBLIC "-//W3C//DTD SVG 20010904//EN"
 "http://www.w3.org/TR/2001/REC-SVG-20010904/DTD/svg10.dtd">
<svg version="1.0" xmlns="http://www.w3.org/2000/svg"
 width="480.000000pt" height="351.000000pt" viewBox="0 0 480.000000 351.000000"
 preserveAspectRatio="xMidYMid meet">

<g transform="translate(0.000000,351.000000) scale(0.100000,-0.100000)"
fill="#000000" stroke="none">
<path d="M0 1755 l0 -1755 2400 0 2400 0 0 1755 0 1755 -2400 0 -2400 0 0
-1755z m1016 1639 c19 -9 34 -20 34 -25 0 -14 -8 -11 -48 16 -42 29 -36 32 14
9z m183 -105 c53 -28 101 -55 106 -61 6 -6 0 -5 -12 1 -13 6 -23 9 -23 7 0 -9
60 -37 69 -32 4 3 17 -1 27 -10 18 -14 18 -15 -3 -4 -44 21 -22 1 32 -30 30
-17 55 -36 55 -41 0 -11 -14 -5 -40 16 -8 7 -25 15 -37 17 -31 8 -19 -14 20
-37 18 -10 75 -46 127 -80 52 -35 112 -70 133 -80 20 -9 37 -22 37 -27 0 -9
-53 18 -168 89 -80 49 -254 132 -291 139 -25 5 -30 11 -26 25 9 27 -19 72 -72
118 -27 22 -44 41 -39 41 5 0 52 -23 105 -51z m339 -173 c78 -48 142 -89 142
-92 0 -7 -34 12 -125 69 -44 28 -101 63 -127 80 -27 16 -48 31 -48 34 0 5 -15
14 158 -91z m1961 20 c-11 -24 -39 -37 -39 -18 0 11 41 54 46 49 3 -2 -1 -16
-7 -31z m-639 -31 c-7 -8 -19 -15 -27 -15 -13 0 -13 3 -3 15 7 8 19 15 27 15
13 0 13 -3 3 -15z m657 -7 c-3 -8 -6 -5 -6 6 -1 11 2 17 5 13 3 -3 4 -12 1
-19z m-2221 1 c3 -6 16 -8 28 -5 20 5 20 5 2 -9 -11 -8 -14 -15 -8 -15 7 0 12
-11 12 -24 0 -30 27 -52 115 -96 36 -18 64 -34 62 -36 -2 -2 -37 9 -77 26 -40
16 -92 31 -116 32 -41 1 -42 2 -24 15 26 18 26 63 -1 97 -11 14 -16 26 -10 26
5 0 13 -5 17 -11z m240 -24 c10 -8 15 -14 9 -14 -5 0 -19 6 -29 14 -11 8 -15
15 -10 15 6 0 19 -7 30 -15z m2006 -13 c-4 -22 -5 -22 -25 -5 -19 17 -20 17
-14 1 3 -10 2 -20 -3 -23 -6 -4 -10 -16 -11 -28 -1 -15 -4 -11 -11 13 -5 19
-15 41 -20 48 -8 9 -7 11 5 7 8 -4 17 -3 20 2 3 4 18 8 34 8 25 0 29 -3 25
-23z m-2095 -14 c18 -11 32 -23 29 -25 -3 -3 -29 9 -58 26 -29 18 -42 29 -29
26 13 -4 39 -16 58 -27z m1347 18 c5 13 10 14 17 7 15 -15 2 -33 -24 -33 -29
-1 -54 -21 -66 -53 -13 -34 -31 -35 -31 -2 0 15 6 25 15 25 8 0 25 16 37 35
20 29 25 32 34 20 10 -14 12 -14 18 1z m611 -64 c-5 -20 -8 -23 -16 -11 -13
20 -11 53 4 68 10 10 13 8 15 -9 2 -12 1 -34 -3 -48z m-1795 22 c0 -9 -44 14
-48 25 -3 8 5 7 22 -4 14 -10 26 -19 26 -21z m1023 19 c-7 -2 -17 -20 -23 -39
-11 -32 -30 -47 -30 -23 0 28 48 85 60 72 3 -3 0 -8 -7 -10z m227 7 c13 -8 13
-10 -2 -10 -9 0 -20 5 -23 10 -8 13 5 13 25 0z m455 -46 c-9 -50 -37 -74 -82
-72 l-38 1 35 4 c42 5 70 28 70 57 0 31 13 72 18 58 2 -7 1 -29 -3 -48z m-525
5 c0 -6 -4 -7 -10 -4 -5 3 -10 11 -10 16 0 6 5 7 10 4 6 -3 10 -11 10 -16z
m70 0 c0 -6 -4 -7 -10 -4 -5 3 -10 11 -10 16 0 6 5 7 10 4 6 -3 10 -11 10 -16z
m505 0 c4 -11 4 -23 1 -26 -3 -4 -6 1 -6 10 0 9 -8 21 -17 26 -16 9 -17 10 -1
11 9 0 20 -9 23 -21z m-1761 -54 c61 -37 101 -55 104 -47 2 7 17 2 43 -15 49
-32 51 -42 3 -14 -20 12 -38 20 -40 18 -2 -2 40 -32 93 -67 93 -61 198 -146
273 -219 30 -30 29 -29 -15 6 -28 23 -102 78 -165 123 -63 45 -119 88 -123 96
-4 8 -15 14 -23 14 -8 0 -28 9 -44 20 -60 40 -86 57 -152 95 -38 22 -68 43
-68 48 0 10 -9 14 114 -58z m141 35 c62 -43 66 -56 5 -18 -48 30 -69 48 -55
48 4 0 26 -14 50 -30z m-478 14 c-3 -3 -12 -4 -19 -1 -8 3 -5 6 6 6 11 1 17
-2 13 -5z m387 -9 c11 -8 16 -15 10 -15 -5 0 -18 7 -28 15 -11 8 -16 15 -10
15 5 0 18 -7 28 -15z m2012 -13 c-9 -17 -23 -28 -38 -29 -22 -2 -22 -1 -4 12
10 8 15 19 10 26 -4 7 -3 10 2 6 6 -3 16 -2 24 4 22 13 22 12 6 -19z m-989
-27 c-4 -8 -11 -15 -17 -15 -6 0 -6 7 2 20 14 22 24 19 15 -5z m766 -132 c5
-7 5 -13 0 -13 -8 0 -63 82 -63 94 0 4 4 5 9 1 6 -3 8 10 5 32 -3 27 2 17 18
-32 13 -38 27 -76 31 -82z m-2043 117 c8 -5 11 -10 5 -10 -5 0 -17 5 -25 10
-8 5 -10 10 -5 10 6 0 17 -5 25 -10z m1580 -10 c0 -4 -11 -5 -25 -2 -14 2 -25
8 -25 12 0 4 11 5 25 2 14 -2 25 -8 25 -12z m394 -12 c-4 -18 -7 -41 -6 -51 1
-15 -2 -16 -14 -6 -8 6 -12 14 -9 17 3 3 0 11 -7 19 -8 10 -7 18 8 33 28 28
37 24 28 -12z m306 11 c0 -6 -4 -7 -10 -4 -5 3 -10 11 -10 16 0 6 5 7 10 4 6
-3 10 -11 10 -16z m-1135 1 c11 -5 14 -9 8 -9 -7 -1 -13 -8 -13 -18 0 -15 -2
-15 -19 1 -17 16 -22 16 -56 1 -54 -22 -57 -9 -4 15 49 22 55 22 84 10z m172
-12 c-3 -8 -6 -5 -6 6 -1 11 2 17 5 13 3 -3 4 -12 1 -19z m-917 -8 c0 -5 -9
-6 -20 -3 -11 3 -17 9 -15 14 7 10 35 1 35 -11z m-258 -34 c51 -24 102 -51
113 -60 11 -9 -32 9 -95 40 -63 31 -117 58 -119 60 -12 11 16 0 101 -40z m471
-69 c53 -38 95 -73 91 -78 -3 -5 -33 12 -67 39 -65 51 -135 105 -177 135 -63
46 66 -35 153 -96z m794 107 c-3 -3 -12 -4 -19 -1 -8 3 -5 6 6 6 11 1 17 -2
13 -5z m796 -6 c31 11 32 11 11 -6 -18 -15 -30 -16 -97 -8 -42 6 -72 13 -67
16 6 4 36 2 66 -4 40 -7 65 -6 87 2z m-2738 -14 c33 -17 126 -44 153 -44 10 0
35 -9 55 -19 70 -36 227 -92 237 -86 6 4 9 1 8 -6 -2 -6 3 -14 11 -17 9 -3 11
0 6 8 -6 9 -1 10 16 5 29 -10 87 -45 74 -45 -5 -1 2 -8 18 -16 15 -8 33 -12
39 -8 6 4 8 3 5 -3 -8 -13 20 -26 36 -16 7 3 9 2 4 -2 -10 -12 70 -58 86 -49
6 4 9 4 5 -1 -4 -4 19 -24 52 -43 33 -20 60 -39 60 -43 0 -4 -37 10 -82 31
-175 82 -553 191 -710 206 -38 4 -68 10 -68 13 0 4 14 12 30 18 34 13 40 41
13 65 -20 17 -103 48 -131 48 -9 0 -24 5 -32 10 -26 17 82 11 115 -6z m608
-24 c87 -36 203 -104 200 -118 -1 -5 34 -30 78 -57 43 -26 79 -50 79 -52 0 -2
-9 1 -19 7 -32 17 -38 11 -11 -11 23 -19 21 -19 -18 2 -24 13 -37 26 -31 29
15 10 -188 120 -209 113 -15 -4 -15 -3 -2 6 9 7 10 11 3 11 -39 0 -10 -24 84
-69 58 -28 104 -53 102 -56 -3 -2 -45 16 -94 40 -50 24 -120 54 -157 65 -50
15 -68 25 -68 38 0 10 -9 35 -19 56 -14 27 -16 36 -6 32 7 -2 47 -19 88 -36z
m168 23 c13 -16 12 -17 -3 -4 -10 7 -18 15 -18 17 0 8 8 3 21 -13z m1241 0
c12 4 18 1 15 -6 -7 -21 -36 -19 -59 4 l-23 21 24 -12 c12 -6 32 -9 43 -7z
m-1879 -13 c43 -10 105 -28 139 -39 35 -11 95 -30 133 -42 79 -24 202 -75 382
-156 87 -40 121 -60 120 -72 -1 -13 -35 1 -161 64 -164 83 -296 132 -317 119
-7 -4 -9 -3 -6 4 10 15 -180 84 -322 116 -62 14 -89 26 -59 26 8 0 49 -9 91
-20z m2267 9 c0 -5 6 -7 13 -3 6 4 9 4 5 -1 -10 -10 -78 -15 -103 -7 -15 5
-11 8 20 13 62 10 65 10 65 -2z m-125 -17 c-3 -3 -11 0 -18 7 -9 10 -8 11 6 5
10 -3 15 -9 12 -12z m-645 -2 c17 -11 17 -11 -27 -15 -48 -4 -42 14 7 24 3 0
12 -4 20 -9z m1040 -10 c0 -5 -2 -10 -4 -10 -3 0 -8 5 -11 10 -3 6 -1 10 4 10
6 0 11 -4 11 -10z m-1762 -58 c15 -13 1 -6 -30 14 -32 20 -58 39 -58 41 0 7
58 -29 88 -55z m1019 36 c-3 -8 -6 -5 -6 6 -1 11 2 17 5 13 3 -3 4 -12 1 -19z
m719 -25 c-10 -10 -19 5 -10 18 6 11 8 11 12 0 2 -7 1 -15 -2 -18z m49 17 c3
-5 1 -10 -4 -10 -6 0 -11 5 -11 10 0 6 2 10 4 10 3 0 8 -4 11 -10z m-1822 -56
c109 -56 353 -221 342 -232 -2 -2 -31 17 -65 43 -34 26 -64 45 -66 42 -4 -4
-256 151 -273 168 -11 12 14 3 62 -21z m1011 10 c5 -14 4 -15 -9 -4 -17 14
-19 20 -6 20 5 0 12 -7 15 -16z m541 -6 c5 4 5 2 1 -5 -9 -16 -33 -6 -33 14 0
14 1 14 12 -1 7 -8 16 -12 20 -8z m269 6 c5 -14 4 -15 -9 -4 -17 14 -19 20 -6
20 5 0 12 -7 15 -16z m606 -13 c-6 -12 -15 -21 -21 -21 -10 0 -5 13 14 38 15
19 20 7 7 -17z m-1644 -17 c-4 -9 -9 -15 -11 -12 -3 3 -3 13 1 22 4 9 9 15 11
12 3 -3 3 -13 -1 -22z m321 2 c6 -6 -9 -36 -18 -36 -5 0 -9 7 -9 15 0 8 -6 15
-14 15 -8 0 -18 5 -22 12 -5 8 2 9 26 4 19 -3 35 -8 37 -10z m309 -3 c16 -22
18 -36 3 -31 -6 2 -9 7 -7 10 2 4 -6 14 -17 22 -13 10 -15 15 -6 16 8 0 20 -8
27 -17z m90 -21 c-9 -9 -37 8 -31 18 5 8 11 7 21 -1 8 -6 12 -14 10 -17z
m-2670 3 c-15 -8 -42 -15 -60 -14 l-31 1 30 13 c17 8 44 14 60 14 l30 1 -29
-15z m212 8 c-16 -2 -40 -2 -55 0 -16 2 -3 4 27 4 30 0 43 -2 28 -4z m2319 1
c-3 -3 -12 -4 -19 -1 -8 3 -5 6 6 6 11 1 17 -2 13 -5z m-2375 -18 c32 1 56 -2
53 -5 -2 -4 22 -6 53 -5 31 1 46 -1 32 -4 -17 -3 10 -12 85 -27 136 -28 394
-99 436 -121 18 -9 61 -27 98 -41 76 -28 157 -77 171 -104 12 -21 8 -20 -163
45 -129 48 -259 84 -407 112 -99 18 -431 25 -552 11 -32 -3 -58 -4 -58 -2 0 7
102 37 140 40 63 7 72 54 16 84 -32 18 -24 33 12 24 15 -4 53 -7 84 -7z m176
7 c-10 -2 -28 -2 -40 0 -13 2 -5 4 17 4 22 1 32 -1 23 -4z m157 -22 c220 -48
420 -111 564 -177 45 -20 81 -40 81 -45 0 -19 -21 -18 -53 4 -91 62 -403 163
-669 217 -32 6 -58 16 -58 21 0 5 10 7 23 4 12 -3 63 -14 112 -24z m2703 0
c-21 -28 -48 -41 -48 -23 0 6 60 52 68 52 2 0 -7 -13 -20 -29z m-1685 -47 c15
-13 34 -21 41 -18 8 3 15 -4 18 -20 4 -22 3 -24 -12 -13 -41 30 -140 110 -140
114 0 5 54 -32 93 -63z m984 60 c-3 -3 -12 -4 -19 -1 -8 3 -5 6 6 6 11 1 17
-2 13 -5z m1128 -4 c3 -6 -1 -7 -9 -4 -18 7 -21 14 -7 14 6 0 13 -4 16 -10z
m-1080 -10 c3 -5 -1 -10 -9 -10 -8 0 -18 5 -21 10 -3 6 1 10 9 10 8 0 18 -4
21 -10z m1305 0 c0 -18 -40 -50 -62 -50 -20 0 -19 3 12 30 37 31 50 36 50 20z
m-3477 -7 c-7 -2 -21 -2 -30 0 -10 3 -4 5 12 5 17 0 24 -2 18 -5z m1272 -61
c-3 -3 -20 9 -38 27 l-32 34 38 -28 c21 -15 35 -30 32 -33z m505 5 c0 -5 -6
-7 -12 -4 -7 2 -12 10 -10 16 1 6 -5 11 -13 11 -16 0 -20 12 -8 24 7 7 42 -32
43 -47z m990 43 c0 -5 -7 -10 -15 -10 -22 0 -18 -18 7 -31 18 -10 20 -9 15 5
-4 9 -3 16 2 16 14 0 63 -51 56 -58 -4 -4 -10 -1 -13 6 -3 10 -8 7 -16 -9 -7
-14 -22 -23 -43 -25 -31 -4 -46 10 -22 18 9 3 8 10 -1 24 -16 25 -6 74 15 74
8 0 15 -4 15 -10z m474 1 c3 -5 -1 -15 -10 -22 -13 -11 -15 -26 -11 -79 3 -40
2 -56 -3 -40 -4 14 -9 18 -9 10 -1 -9 -6 -5 -14 10 -7 14 -9 27 -4 29 5 2 4 6
-2 10 -16 10 -2 79 18 84 27 8 30 7 35 -2z m-1554 -22 c0 -5 -4 -9 -10 -9 -5
0 -10 7 -10 16 0 8 5 12 10 9 6 -3 10 -10 10 -16z m443 11 c7 0 4 -5 -6 -11
-21 -12 -51 -4 -42 12 4 6 14 8 22 5 8 -3 20 -6 26 -6z m1022 -38 c-15 -16
-16 -15 -4 12 7 15 15 23 17 16 3 -7 -3 -19 -13 -28z m145 17 c0 -6 -4 -7 -10
-4 -5 3 -10 11 -10 16 0 6 5 7 10 4 6 -3 10 -11 10 -16z m-3025 -19 c33 -11
44 -17 25 -13 -19 3 -60 14 -90 24 -30 10 -41 16 -25 13 17 -2 57 -13 90 -24z
m2055 15 c-7 -8 -17 -12 -22 -9 -6 4 -5 10 3 15 22 14 33 10 19 -6z m-246 -4
c3 -5 -1 -12 -10 -15 -22 -9 -24 -8 -24 9 0 16 25 21 34 6z m196 5 c0 -2 -7
-7 -16 -10 -8 -3 -12 -2 -9 4 6 10 25 14 25 6z m440 0 c0 -3 -14 -20 -31 -38
-18 -18 -29 -27 -25 -20 4 7 2 12 -6 12 -7 0 1 11 17 25 28 23 45 31 45 21z
m716 -49 c-9 -13 -14 -26 -12 -28 3 -3 -3 -5 -12 -6 -9 -1 -39 -4 -67 -7 l-50
-6 50 14 c33 9 58 24 75 45 28 34 40 26 16 -12z m-1621 22 c10 -14 1 -21 -19
-13 -9 3 -13 10 -10 15 7 12 21 11 29 -2z m485 -23 c0 -30 -3 -34 -25 -32 -15
0 -23 6 -21 13 3 6 0 13 -6 15 -7 3 -8 10 -4 17 6 9 11 10 19 2 15 -15 27 -14
27 4 0 8 2 15 5 15 3 0 5 -15 5 -34z m329 -6 c-11 -22 -22 -40 -25 -40 -3 0
-2 5 1 10 3 6 -1 10 -9 10 -32 0 -6 30 51 59 0 1 -8 -17 -18 -39z m-489 9 c0
-5 -11 -9 -25 -9 -14 0 -25 -4 -25 -8 0 -4 -13 -16 -30 -25 -16 -10 -30 -15
-30 -11 0 3 -7 1 -15 -6 -9 -7 -14 -19 -11 -27 8 -19 -13 -60 -41 -78 -29 -20
-29 -15 2 31 14 20 25 42 25 49 0 14 34 47 42 40 2 -3 5 2 5 10 0 20 -7 19
-37 -5 -14 -11 -32 -20 -40 -20 -13 0 -13 -1 0 -10 11 -7 11 -10 2 -10 -7 0
-11 -4 -7 -9 8 -13 -35 -25 -47 -13 -6 6 0 12 17 16 14 4 23 11 20 16 -3 5 4
14 15 20 11 6 20 15 20 21 0 6 -4 8 -9 5 -4 -3 -17 1 -27 8 -17 13 -13 14 35
11 29 -2 56 -6 58 -9 3 -3 21 4 40 14 34 18 63 17 63 -1z m43 0 c-4 -13 -9
-17 -15 -11 -11 11 -3 32 12 32 4 0 6 -9 3 -21z m367 -53 c0 -6 7 -23 14 -38
20 -37 24 -70 9 -75 -7 -3 -16 13 -23 37 -11 40 -43 105 -61 125 -5 5 -9 13
-9 19 0 5 16 -5 35 -24 19 -19 35 -39 35 -44z m-1220 34 c19 -27 20 -31 5 -36
-24 -10 -41 11 -25 31 8 9 8 15 2 15 -6 0 -14 -5 -18 -11 -4 -8 -9 -7 -15 2
-26 41 22 39 51 -1z m520 26 c0 -3 -4 -8 -10 -11 -5 -3 -10 -1 -10 4 0 6 5 11
10 11 6 0 10 -2 10 -4z m488 -26 c3 -21 2 -22 -12 -11 -19 16 -21 44 -3 39 6
-3 14 -15 15 -28z m-1592 -11 c19 -11 34 -23 34 -25 0 -5 -44 17 -70 35 -28
20 3 11 36 -10z m1134 11 c0 -5 -4 -10 -10 -10 -5 0 -10 5 -10 10 0 6 5 10 10
10 6 0 10 -4 10 -10z m-80 -10 c0 -5 -2 -10 -4 -10 -3 0 -8 5 -11 10 -3 6 -1
10 4 10 6 0 11 -4 11 -10z m411 -3 c-1 -4 -1 -16 -1 -28 0 -11 -4 -18 -8 -15
-4 2 -8 -3 -9 -12 -1 -9 -8 -51 -17 -92 l-15 -75 3 77 c2 65 1 76 -11 67 -7
-6 -13 -24 -13 -40 0 -41 -15 -43 -39 -6 -20 30 -21 31 -15 6 3 -15 1 -30 -5
-33 -6 -4 -11 0 -11 8 0 10 -6 13 -16 9 -12 -5 -15 1 -12 28 2 22 8 33 16 31
10 -2 12 4 7 20 -6 19 -5 21 6 11 23 -22 55 -14 90 22 31 32 52 41 50 22z
m-2721 -7 c-8 -5 -19 -10 -25 -10 -5 0 -3 5 5 10 8 5 20 10 25 10 6 0 3 -5 -5
-10z m230 -2 c0 -4 -37 -7 -82 -6 l-83 1 65 6 c89 8 100 8 100 -1z m37 6 c-3
-3 -12 -4 -19 -1 -8 3 -5 6 6 6 11 1 17 -2 13 -5z m490 -34 c164 -36 453 -133
453 -153 0 -18 -29 -16 -77 8 -155 74 -541 166 -710 169 -40 0 -73 5 -73 10 0
20 262 -2 407 -34z m253 27 c58 -22 106 -45 93 -46 -6 -1 -42 12 -80 29 -69
30 -77 41 -13 17z m1330 3 c0 -5 -2 -10 -4 -10 -3 0 -8 5 -11 10 -3 6 -1 10 4
10 6 0 11 -4 11 -10z m-439 -17 c13 -16 12 -17 -3 -4 -10 7 -18 15 -18 17 0 8
8 3 21 -13z m479 11 c0 -8 -19 -13 -24 -6 -3 5 1 9 9 9 8 0 15 -2 15 -3z m840
-20 c-14 -37 -12 -64 9 -130 26 -83 39 -108 62 -122 23 -15 41 -8 32 13 -3 8
1 15 8 15 7 0 9 -3 6 -7 -4 -3 -2 -12 4 -19 12 -15 3 -54 -13 -54 -5 0 -8 6
-5 13 2 7 -10 16 -27 22 -39 13 -78 87 -96 180 -12 64 -13 65 -26 39 -8 -14
-11 -30 -8 -35 10 -17 13 -50 3 -44 -5 4 -9 2 -9 -4 0 -12 -48 -7 -63 8 -13
13 -4 23 24 25 27 1 38 26 12 27 -12 0 -9 4 10 11 31 11 37 29 7 21 -11 -3
-20 0 -20 6 0 6 4 11 9 11 5 0 17 7 26 17 13 13 18 14 25 3 6 -9 10 -7 15 9 3
11 10 21 15 21 6 0 5 -11 0 -26z m85 16 c3 -5 1 -10 -4 -10 -6 0 -11 5 -11 10
0 6 2 10 4 10 3 0 8 -4 11 -10z m255 6 c0 -2 -8 -10 -17 -17 -16 -13 -17 -12
-4 4 13 16 21 21 21 13z m-2150 -15 c0 -5 -7 -14 -15 -21 -18 -15 -42 1 -31
19 8 13 46 15 46 2z m1398 -32 l3 -34 -16 29 c-18 34 -19 49 -2 44 6 -3 13
-20 15 -39z m52 5 c0 -32 -6 -30 -18 5 -9 25 -8 29 4 24 8 -3 14 -16 14 -29z
m933 29 c-7 -2 -19 -2 -25 0 -7 3 -2 5 12 5 14 0 19 -2 13 -5z m-3434 -13 c23
-4 44 -3 47 1 3 5 22 8 42 8 l37 -2 -35 -8 c-30 -7 -27 -7 18 -5 32 2 48 0 40
-5 -8 -6 5 -9 35 -9 63 0 246 -40 382 -84 125 -41 118 -39 110 -26 -3 5 7 5
25 -1 37 -14 39 -21 3 -14 -16 3 -3 -5 27 -17 71 -29 96 -45 88 -53 -3 -3 -28
5 -55 18 -118 60 -308 123 -393 131 l-55 5 65 -14 c124 -26 401 -128 386 -142
-2 -2 -15 1 -28 8 -12 7 -32 14 -43 15 -11 2 -63 20 -115 40 -52 20 -102 37
-110 37 -8 0 -20 4 -26 9 -7 5 -25 11 -40 13 -35 5 -114 20 -209 40 -72 15
-60 15 75 0 40 -4 38 -3 -13 9 -32 7 -109 16 -170 19 -62 3 -96 2 -77 -2 27
-5 12 -8 -67 -14 -56 -4 -108 -9 -116 -13 -9 -3 -16 3 -20 15 -5 20 -12 21
-123 21 -64 0 -115 2 -112 5 3 3 43 8 89 12 46 3 86 7 89 10 7 7 205 1 249 -7z
m966 -8 c-3 -3 -11 0 -18 7 -9 10 -8 11 6 5 10 -3 15 -9 12 -12z m470 8 c3 -5
1 -10 -4 -10 -6 0 -11 5 -11 10 0 6 2 10 4 10 3 0 8 -4 11 -10z m1489 -29 c-8
-9 -22 12 -17 26 6 15 7 14 13 -3 4 -10 6 -21 4 -23z m-3387 23 c-3 -3 -12 -4
-19 -1 -8 3 -5 6 6 6 11 1 17 -2 13 -5z m1561 -7 c8 -9 4 -15 -13 -24 -19 -8
-27 -8 -37 4 -9 12 -9 16 3 24 20 12 35 11 47 -4z m427 3 c3 -5 2 -10 -4 -10
-5 0 -13 5 -16 10 -3 6 -2 10 4 10 5 0 13 -4 16 -10z m1748 -5 c-3 -9 -8 -14
-10 -11 -3 3 -2 9 2 15 9 16 15 13 8 -4z m157 1 c0 -8 -5 -18 -11 -22 -14 -8
-33 11 -25 25 10 16 36 13 36 -3z m-3943 -2 c-3 -3 -12 -4 -19 -1 -8 3 -5 6 6
6 11 1 17 -2 13 -5z m2010 -11 c2 -6 -7 -8 -23 -5 -19 3 -22 7 -12 13 15 10
30 7 35 -8z m1729 10 c-11 -11 -48 -14 -41 -3 3 5 16 10 27 10 12 0 18 -3 14
-7z m-3816 -18 c-46 -18 -64 -17 -25 0 17 8 37 14 45 14 8 0 -1 -7 -20 -14z
m1600 6 c0 -12 -29 -35 -36 -28 -11 10 5 37 21 37 8 0 15 -4 15 -9z m-125 -61
c3 -5 2 -10 -2 -10 -10 0 -83 49 -83 56 0 7 78 -35 85 -46z m157 44 c12 -11
-24 -64 -43 -64 -10 0 -19 5 -19 10 0 6 8 10 18 8 11 -2 16 3 14 15 -2 9 2 17
8 17 6 0 8 5 5 10 -6 10 8 14 17 4z m72 0 c25 -10 19 -24 -10 -24 -21 0 -24
-4 -19 -20 5 -15 2 -20 -13 -20 -30 0 -34 26 -6 39 13 6 24 15 24 21 0 12 3
12 24 4z m450 -16 c9 -12 16 -29 16 -38 -1 -12 -3 -11 -11 3 -6 10 -22 22 -35
27 -29 11 -32 30 -5 30 11 0 27 -10 35 -22z m461 13 c-6 -6 -25 -6 -45 -1
l-35 8 45 1 c27 1 40 -3 35 -8z m969 -74 c39 -38 55 -57 36 -43 -20 13 -46 39
-58 55 -17 24 -30 31 -56 31 -30 0 -53 19 -40 33 14 13 54 -13 118 -76z m516
63 c11 -11 20 -30 19 -42 0 -23 -1 -22 -12 2 -14 31 -26 40 -44 33 -9 -4 -11
0 -7 11 8 21 20 20 44 -4z m-3983 4 c-3 -3 -12 -4 -19 -1 -8 3 -5 6 6 6 11 1
17 -2 13 -5z m1423 -4 c0 -5 -5 -10 -11 -10 -5 0 -7 5 -4 10 3 6 8 10 11 10 2
0 4 -4 4 -10z m220 -11 c0 -18 -2 -19 -15 -9 -8 7 -15 16 -15 21 0 5 7 9 15 9
9 0 15 -9 15 -21z m264 -10 c-8 -14 -34 -11 -34 4 0 8 3 17 7 20 9 9 34 -13
27 -24z m60 -17 c-30 -57 -12 -85 93 -143 l77 -43 -33 -13 c-31 -13 -72 -10
-70 5 4 25 -4 32 -33 30 -28 -3 -34 1 -36 20 -2 12 2 22 8 22 6 0 8 -5 4 -12
-4 -7 -3 -8 5 -4 19 12 3 25 -30 24 -39 -1 -61 19 -37 35 15 10 15 12 1 22
-14 11 -14 14 6 34 13 13 20 29 17 38 -9 23 3 34 24 23 17 -9 17 -13 4 -38z
m-284 11 c0 -10 6 -13 16 -9 8 3 13 2 10 -2 -3 -5 -22 -9 -43 -9 -21 0 -30 2
-20 4 12 3 16 10 12 24 -5 14 -3 17 9 13 9 -3 16 -13 16 -21z m1876 -20 c7 -7
17 -13 23 -13 5 0 12 -4 15 -9 8 -12 -64 -8 -88 6 -12 7 -17 16 -13 27 4 10
11 15 16 11 5 -3 13 0 17 7 6 9 9 8 12 -2 3 -8 11 -20 18 -27z m-2126 7 c-6
-11 -15 -20 -19 -20 -5 0 -7 9 -4 20 3 11 12 20 20 20 11 0 11 -4 3 -20z m183
0 c-6 -22 -11 -24 -32 -11 -17 11 -6 31 19 31 13 0 17 -5 13 -20z m1305 4 c34
-16 45 -54 16 -54 -8 0 -12 -5 -8 -11 4 -8 0 -7 -15 1 -12 6 -19 15 -16 21 4
5 1 9 -4 9 -6 0 -11 11 -11 25 0 30 -1 29 38 9z m182 1 c-7 -9 -15 -13 -17
-11 -7 7 7 26 19 26 6 0 6 -6 -2 -15z m717 -11 c-3 -3 -12 -4 -19 -1 -8 3 -5
6 6 6 11 1 17 -2 13 -5z m-2291 -34 c0 -25 -22 -26 -36 -1 -7 14 -6 21 3 24
20 7 33 -2 33 -23z m240 -8 l17 -26 -34 22 c-39 24 -49 43 -20 35 11 -3 28
-17 37 -31z m1202 -8 c-6 -13 -15 -21 -20 -18 -6 4 -5 11 1 17 6 6 11 20 11
32 0 15 2 17 9 6 6 -9 5 -23 -1 -37z m147 27 c-3 -6 -11 -11 -17 -11 -6 0 -6
6 2 15 14 17 26 13 15 -4z m-1655 0 c0 -5 3 -16 6 -25 4 -10 1 -16 -7 -16 -24
0 -42 17 -36 34 7 17 37 23 37 7z m135 -2 c8 -11 -25 -40 -37 -33 -5 3 -8 14
-8 25 0 21 34 27 45 8z m825 2 c0 -12 -20 -25 -27 -18 -7 7 6 27 18 27 5 0 9
-4 9 -9z m465 -44 c17 -25 39 -50 50 -56 16 -8 17 -10 4 -10 -15 -1 -109 98
-109 114 0 18 28 -6 55 -48z m-1482 23 c-6 -21 -28 -27 -38 -10 -9 15 3 30 25
30 13 0 17 -5 13 -20z m1061 5 c3 -8 1 -15 -4 -15 -6 0 -10 7 -10 15 0 8 2 15
4 15 2 0 6 -7 10 -15z m116 0 c-7 -8 -18 -15 -24 -15 -6 0 -2 7 8 15 25 19 32
19 16 0z m135 -3 c-3 -3 -11 0 -18 7 -9 10 -8 11 6 5 10 -3 15 -9 12 -12z
m-730 -1 c3 -5 2 -12 -3 -15 -5 -3 -9 1 -9 9 0 17 3 19 12 6z m645 -2 c12 -9
12 -10 -4 -5 -11 4 -22 3 -25 -2 -3 -4 -21 -19 -40 -31 l-33 -24 12 22 c6 13
14 20 17 18 2 -3 13 3 24 14 22 22 28 23 49 8z m-1284 -38 c4 -37 -15 -55 -36
-33 -13 14 -12 15 2 10 13 -6 16 -1 13 20 -3 28 3 47 12 38 3 -3 7 -18 9 -35z
m1038 31 c7 -12 -12 -38 -21 -28 -4 5 -2 11 6 14 11 4 11 6 0 13 -9 6 -10 9
-2 9 6 0 14 -4 17 -8z m719 -2 c7 0 6 -4 -3 -10 -19 -13 -60 -13 -60 0 0 5 7
6 17 3 12 -5 14 -3 8 7 -6 10 -4 12 9 7 10 -4 23 -7 29 -7z m-1553 -22 c0 -5
-16 -25 -35 -46 -19 -22 -32 -41 -29 -45 3 -3 0 -8 -7 -13 -8 -4 -10 -3 -5 5
6 9 0 10 -19 5 -24 -6 -26 -4 -23 17 2 18 8 23 26 21 20 -3 27 7 23 32 -5 23
10 35 39 33 16 -1 30 -5 30 -9z m900 -8 c-13 -24 -16 -25 -24 -4 -3 8 -2 12 3
9 5 -3 12 -1 16 5 11 19 16 10 5 -10z m70 10 c0 -6 -7 -24 -15 -40 -13 -25
-13 -30 -2 -30 8 0 26 9 40 20 33 26 37 25 37 -5 0 -16 6 -25 15 -25 8 0 15
-7 15 -15 0 -18 84 -105 101 -105 7 0 10 -2 7 -5 -8 -9 -127 21 -180 45 -50
22 -88 61 -88 91 0 9 12 31 26 48 26 31 44 40 44 21z m198 -6 c14 -9 22 -25
22 -42 l-1 -27 -29 35 c-43 49 -38 67 8 34z m-1318 -20 c0 -16 -16 -19 -25 -4
-8 13 4 32 16 25 5 -4 9 -13 9 -21z m60 5 c0 -25 -33 -22 -38 4 -2 12 3 17 17
17 15 0 21 -6 21 -21z m1765 10 c22 0 14 -5 -35 -19 -69 -21 -90 -20 -90 4 0
20 19 26 60 21 19 -3 49 -5 65 -6z m-244 -27 c-13 -2 -31 3 -39 12 -14 14 -12
14 24 3 33 -10 35 -13 15 -15z m314 18 c3 -5 2 -10 -4 -10 -5 0 -13 5 -16 10
-3 6 -2 10 4 10 5 0 13 -4 16 -10z m345 -5 l25 -14 -31 -1 c-19 0 -34 6 -38
15 -7 19 11 19 44 0z m-1280 -5 c0 -5 -2 -10 -4 -10 -3 0 -8 5 -11 10 -3 6 -1
10 4 10 6 0 11 -4 11 -10z m70 -33 c0 -11 -4 -15 -12 -11 -6 4 -8 3 -5 -3 4
-6 0 -16 -7 -22 -11 -9 -16 -9 -22 0 -5 8 -3 9 5 5 8 -5 12 -3 10 5 -3 27 1
40 11 34 6 -3 10 -1 10 4 0 6 -5 11 -11 11 -5 0 -7 5 -3 11 8 14 24 -8 24 -34z
m-1541 29 c-6 -7 -133 -35 -137 -31 -6 6 90 34 117 34 13 1 22 -1 20 -3z m386
-16 c3 -5 2 -10 -4 -10 -5 0 -13 5 -16 10 -3 6 -2 10 4 10 5 0 13 -4 16 -10z
m2012 4 c-3 -3 -12 -4 -19 -1 -8 3 -5 6 6 6 11 1 17 -2 13 -5z m-2312 -14
c-27 -5 -66 -8 -85 -8 l-35 1 35 7 c19 4 58 7 85 7 l50 0 -50 -7z m1928 -4 c9
-7 17 -22 17 -32 -1 -18 -1 -18 -12 1 -16 30 -18 31 -28 15 -8 -12 -10 -10
-10 8 0 25 7 27 33 8z m155 -20 c0 -18 5 -43 11 -54 8 -15 8 -22 -2 -25 -6 -3
0 -6 16 -6 15 -1 27 -5 27 -11 0 -5 7 -10 15 -10 23 0 18 -16 -5 -17 -12 -1
-20 4 -20 14 0 9 -6 13 -15 10 -17 -7 -62 44 -72 81 -6 24 -7 25 -15 7 -8 -20
-8 -20 -5 0 2 17 38 44 59 45 3 0 6 -15 6 -34z m267 24 c3 -5 2 -10 -4 -10 -5
0 -13 5 -16 10 -3 6 -2 10 4 10 5 0 13 -4 16 -10z m-108 -6 c-3 -3 -12 -4 -19
-1 -8 3 -5 6 6 6 11 1 17 -2 13 -5z m78 -4 c3 -5 1 -10 -4 -10 -6 0 -11 5 -11
10 0 6 2 10 4 10 3 0 8 -4 11 -10z m-2458 -6 c-3 -3 -12 -4 -19 -1 -8 3 -5 6
6 6 11 1 17 -2 13 -5z m571 -12 c6 -18 -15 -14 -22 4 -4 10 -1 14 6 12 6 -2
14 -10 16 -16z m1937 8 c-3 -5 -12 -10 -18 -10 -7 0 -6 4 3 10 19 12 23 12 15
0z m-1126 -72 c-7 -23 -18 -38 -28 -38 -13 0 -13 2 -2 9 9 6 10 11 2 15 -6 4
-9 12 -5 17 3 5 9 7 14 4 4 -3 11 12 16 33 5 25 9 31 12 18 2 -11 -2 -37 -9
-58z m1018 66 c-3 -3 -12 -4 -19 -1 -8 3 -5 6 6 6 11 1 17 -2 13 -5z m-2502
-14 c-3 -5 -11 -10 -16 -10 -6 0 -7 5 -4 10 3 6 11 10 16 10 6 0 7 -4 4 -10z
m1710 -10 c7 -21 0 -40 -14 -40 -11 0 -19 31 -14 48 7 18 21 15 28 -8z m302
-6 c0 -18 0 -18 -21 5 -17 19 -17 19 1 15 11 -3 20 -12 20 -20z m583 10 c0 -2
-9 -4 -20 -4 -11 0 -20 4 -20 9 0 5 9 7 20 4 11 -3 20 -7 20 -9z m-2432 -1
c-10 -2 -26 -2 -35 0 -10 3 -2 5 17 5 19 0 27 -2 18 -5z m2362 -4 c0 -6 -9 -8
-21 -4 -14 5 -19 3 -15 -3 3 -6 -6 -13 -21 -16 -55 -12 -102 -16 -107 -8 -2 4
7 8 22 7 15 0 32 6 38 14 10 13 14 13 28 1 10 -7 16 -9 15 -4 -3 20 2 24 31
24 17 0 30 -5 30 -11z m680 1 c8 -5 12 -12 8 -15 -9 -9 -78 5 -78 16 0 12 51
11 70 -1z m-2977 -7 c-7 -2 -19 -2 -25 0 -7 3 -2 5 12 5 14 0 19 -2 13 -5z
m145 0 c-10 -2 -26 -2 -35 0 -10 3 -2 5 17 5 19 0 27 -2 18 -5z m342 -3 c-19
-13 -30 -13 -30 0 0 6 10 10 23 10 18 0 19 -2 7 -10z m327 -27 c46 -44 176
-112 261 -138 12 -3 19 -11 16 -17 -4 -6 5 -9 22 -7 16 1 38 1 48 1 18 -2 18
-4 -4 -27 -30 -32 -60 -34 -52 -3 3 14 2 19 -6 14 -7 -4 -12 -14 -12 -22 0 -8
-5 -12 -10 -9 -6 4 -8 15 -5 26 6 18 5 18 -23 2 -26 -15 -32 -15 -46 -3 -9 7
-15 19 -12 25 3 8 -8 12 -32 11 -31 -1 -38 3 -40 21 -3 19 -6 21 -23 12 -20
-10 -69 -2 -52 10 6 3 10 14 10 23 0 13 -7 16 -27 12 -17 -4 -31 0 -40 11 -12
15 -11 16 13 10 22 -6 26 -4 21 9 -3 8 -14 18 -25 21 -11 4 -17 11 -14 16 4 5
1 9 -5 9 -6 0 -9 4 -6 9 4 5 0 12 -6 14 -7 3 -8 6 -2 6 6 1 29 -16 51 -36z
m-744 20 c-7 -2 -19 -2 -25 0 -7 3 -2 5 12 5 14 0 19 -2 13 -5z m1964 -8 c-4
-8 -2 -17 3 -20 15 -9 12 -22 -4 -22 -8 0 -12 6 -8 15 3 10 1 13 -6 8 -16 -9
-15 1 1 19 16 18 21 19 14 0z m-2174 -2 c-7 -2 -19 -2 -25 0 -7 3 -2 5 12 5
14 0 19 -2 13 -5z m160 0 c-7 -2 -21 -2 -30 0 -10 3 -4 5 12 5 17 0 24 -2 18
-5z m1752 -3 c3 -5 1 -10 -4 -10 -6 0 -11 5 -11 10 0 6 2 10 4 10 3 0 8 -4 11
-10z m99 -48 c-21 -5 -59 32 -49 48 5 8 16 3 37 -17 24 -23 27 -29 12 -31z
m116 34 c0 -32 -18 -43 -37 -23 -20 20 -10 47 17 47 15 0 20 -7 20 -24z m935
14 c-26 -11 -78 -12 -71 -2 2 4 24 8 48 9 31 1 38 -1 23 -7z m162 4 c-3 -3
-12 -4 -19 -1 -8 3 -5 6 6 6 11 1 17 -2 13 -5z m103 -9 c-7 -9 -15 -13 -17
-11 -7 7 7 26 19 26 6 0 6 -6 -2 -15z m-3011 -4 c11 -7 10 -10 -5 -14 -33 -10
-122 -17 -94 -8 l25 8 -25 5 c-14 3 0 4 30 2 43 -2 49 -1 25 5 l-30 9 30 1
c17 0 36 -3 44 -8z m237 -16 c-9 -13 -16 -32 -16 -42 0 -11 -3 -14 -10 -7 -12
12 15 74 32 74 6 0 3 -11 -6 -25z m677 10 c-18 -13 -33 -11 -33 4 0 5 11 9 25
9 23 0 24 -2 8 -13z m427 0 c16 -19 3 -40 -16 -24 -15 13 -19 39 -5 39 5 0 14
-7 21 -15z m1040 6 c0 -14 -26 -20 -41 -9 -11 8 -10 9 4 4 9 -3 17 -1 17 4 0
6 5 10 10 10 6 0 10 -4 10 -9z m-1640 -5 c0 -2 -7 -7 -16 -10 -8 -3 -12 -2 -9
4 6 10 25 14 25 6z m120 -11 c-7 -8 -17 -15 -23 -15 -6 0 -2 7 9 15 25 19 30
19 14 0z m115 5 c3 -6 -1 -7 -9 -4 -18 7 -21 14 -7 14 6 0 13 -4 16 -10z
m1435 0 c0 -5 -4 -10 -10 -10 -5 0 -10 5 -10 10 0 6 5 10 10 10 6 0 10 -4 10
-10z m512 3 c-7 -2 -17 -13 -22 -23 -9 -17 -7 -19 17 -17 16 1 31 7 35 12 4 6
8 2 8 -7 0 -18 -13 -22 -56 -19 -24 2 -112 -68 -131 -105 -17 -30 -7 -52 25
-57 24 -4 24 -4 -5 -6 -23 -1 -35 5 -43 19 -14 27 26 95 76 130 48 33 77 61
71 67 -3 2 -15 -1 -27 -7 -22 -12 -47 -19 -90 -26 l-25 -4 25 9 c14 4 24 13
23 18 -1 6 5 9 15 6 9 -2 28 0 42 6 14 5 36 10 50 10 14 -1 19 -3 12 -6z m158
3 c0 -11 -19 -15 -25 -6 -3 5 1 10 9 10 9 0 16 -2 16 -4z m-640 -16 c0 -5 -4
-10 -10 -10 -5 0 -10 5 -10 10 0 6 5 10 10 10 6 0 10 -4 10 -10z m-2415 -10
c-3 -5 -13 -10 -21 -10 -8 0 -14 -4 -14 -9 0 -4 -12 -7 -27 -4 -24 3 -25 2 -8
-6 25 -12 -1 -13 -30 -2 -15 6 -6 11 40 23 33 9 61 16 63 17 2 1 0 -3 -3 -9z
m2455 0 c0 -5 -5 -10 -11 -10 -5 0 -7 -4 -4 -10 3 -5 1 -10 -4 -10 -13 0 -13
3 -5 24 7 18 24 22 24 6z m531 -14 c1 5 1 14 -1 19 -1 6 4 4 11 -2 10 -10 9
-17 -6 -33 -22 -24 -35 -17 -35 18 1 26 1 26 15 8 8 -11 16 -16 16 -10z
m-2076 4 c-3 -5 -12 -10 -18 -10 -7 0 -6 4 3 10 19 12 23 12 15 0z m87 -1 c20
-11 20 -11 -2 -26 -25 -18 -38 -10 -20 12 11 13 10 14 -5 9 -13 -5 -16 -4 -11
4 9 15 12 15 38 1z m371 -14 c-1 -11 0 -14 3 -7 8 16 41 15 47 -2 3 -8 3 -17
0 -20 -12 -11 -51 -6 -63 9 -7 8 -22 15 -34 15 -15 0 -17 -3 -7 -9 8 -5 9 -11
3 -15 -17 -11 -20 18 -4 37 21 24 58 19 55 -8z m-866 9 c-3 -3 -12 -4 -19 -1
-8 3 -5 6 6 6 11 1 17 -2 13 -5z m1389 -1 c-10 -10 -46 -14 -46 -5 0 4 12 9
27 10 14 1 23 -1 19 -5z m435 -10 c13 -16 12 -17 -3 -4 -17 13 -22 21 -14 21
2 0 10 -8 17 -17z m76 11 c-3 -3 -12 -4 -19 -1 -8 3 -5 6 6 6 11 1 17 -2 13
-5z m377 -6 c26 12 32 7 18 -14 -21 -31 -82 -26 -82 7 0 16 3 17 19 7 15 -9
25 -9 45 0z m-2769 -8 c11 -5 14 -9 7 -9 -7 -1 -10 -6 -7 -11 3 -6 -6 -15 -20
-20 -33 -12 -58 -13 -51 -1 4 5 0 12 -6 14 -7 3 5 3 27 1 33 -3 35 -2 15 5
l-25 9 25 1 c20 1 22 3 10 11 -18 12 -2 12 25 0z m855 1 c0 -6 -4 -12 -8 -15
-5 -3 -9 1 -9 9 0 8 4 15 9 15 4 0 8 -4 8 -9z m210 -10 c5 -11 10 -30 10 -43
0 -43 145 -228 168 -214 4 2 8 -4 8 -14 0 -17 -2 -17 -31 -3 -32 17 -105 89
-105 105 0 5 -5 6 -12 2 -6 -4 -8 -3 -5 3 4 6 -2 18 -13 28 -11 10 -23 35 -26
56 -4 21 -15 46 -25 55 -18 16 -20 16 -38 0 -11 -10 -24 -15 -30 -12 -5 4 -12
2 -16 -3 -7 -13 -46 -9 -42 4 2 5 21 10 42 10 27 0 42 6 54 22 20 28 47 29 61
4z m940 -1 c0 -5 9 -6 20 -3 11 3 20 1 20 -5 0 -14 -28 -23 -35 -12 -4 6 -17
10 -31 10 -21 0 -23 2 -12 14 13 13 38 11 38 -4z m465 10 c3 -5 2 -10 -4 -10
-5 0 -13 5 -16 10 -3 6 -2 10 4 10 5 0 13 -4 16 -10z m30 1 c3 -5 1 -12 -5
-16 -5 -3 -10 1 -10 9 0 18 6 21 15 7z m508 -6 c-3 -9 -8 -14 -10 -11 -3 3 -2
9 2 15 9 16 15 13 8 -4z m-2446 -11 c-3 -3 -12 -4 -19 -1 -8 3 -5 6 6 6 11 1
17 -2 13 -5z m903 -9 c0 -9 -9 -15 -25 -15 -24 0 -32 10 -18 23 12 13 43 7 43
-8z m1145 5 c-3 -5 -12 -10 -18 -10 -7 0 -6 4 3 10 19 12 23 12 15 0z m-2538
-15 c-11 -7 -36 -17 -58 -20 -21 -4 -41 -11 -45 -16 -7 -12 -24 -12 -24 1 0 5
28 18 63 29 74 24 88 25 64 6z m430 9 c-3 -3 -12 -4 -19 -1 -8 3 -5 6 6 6 11
1 17 -2 13 -5z m403 1 c0 -2 -10 -9 -22 -15 -22 -11 -22 -10 -4 4 21 17 26 19
26 11z m693 -7 c23 1 22 -24 -2 -31 -14 -3 -18 -1 -14 10 5 13 2 13 -15 4 -27
-14 -45 -14 -36 1 5 8 2 9 -9 5 -20 -8 -47 1 -47 15 0 6 20 7 53 2 28 -4 60
-7 70 -6z m488 -3 c0 -5 -9 -11 -21 -13 -15 -3 -18 1 -14 13 7 17 35 17 35 0z
m801 -17 c-11 -11 -32 -3 -32 12 0 12 34 18 39 7 2 -5 -1 -13 -7 -19z m48 28
c0 -3 -4 -8 -10 -11 -5 -3 -10 -1 -10 4 0 6 5 11 10 11 6 0 10 -2 10 -4z
m-4177 -69 c-3 -21 -10 -37 -14 -37 -5 0 -9 -7 -9 -15 0 -8 5 -15 10 -15 6 0
10 -7 10 -15 0 -19 -26 -20 -34 0 -8 22 25 150 35 132 5 -7 6 -30 2 -50z
m1577 51 c-30 -5 -113 -21 -183 -34 -92 -17 -133 -21 -145 -14 -13 8 -10 9 13
4 24 -4 27 -3 15 6 -13 10 -12 11 3 6 10 -3 37 -3 60 1 33 5 37 8 22 14 -12 5
-2 6 25 3 31 -4 41 -3 31 4 -9 7 1 8 31 5 25 -3 48 -1 51 3 3 5 34 10 69 10
l63 2 -55 -10z m1046 -10 c11 -17 -5 -21 -21 -5 -8 9 -23 14 -33 11 -13 -5
-14 -4 -3 4 15 11 48 5 57 -10z m320 12 c24 0 34 -5 34 -15 0 -8 -3 -15 -7
-15 -5 0 -18 -3 -30 -6 -18 -5 -23 -2 -23 12 0 14 -3 15 -12 6 -7 -7 -20 -12
-30 -12 -16 0 -17 3 -8 21 7 12 17 18 27 15 8 -3 30 -6 49 -6z m434 0 c0 -12
-28 -25 -36 -17 -9 9 6 27 22 27 8 0 14 -5 14 -10z m-1570 -20 c13 -13 15 -20
7 -20 -14 0 -37 20 -37 32 0 13 9 9 30 -12z m1240 7 c0 -20 -22 -37 -47 -37
-26 0 -27 3 -13 31 12 21 60 26 60 6z m370 3 c0 -5 -9 -14 -20 -20 -22 -12
-23 -10 -14 14 7 17 34 22 34 6z m-745 -11 c12 -18 -3 -22 -20 -5 -14 14 -14
16 -1 16 8 0 18 -5 21 -11z m445 -2 c0 -18 -21 -37 -41 -37 -22 0 -31 13 -23
34 7 20 64 22 64 3z m330 9 c0 -2 3 -11 6 -19 3 -10 -2 -17 -13 -20 -17 -4
-17 -5 0 -6 10 0 21 8 25 20 7 17 10 18 18 7 23 -29 23 -48 1 -59 -12 -7 -19
-8 -15 -4 4 4 -10 16 -32 27 -37 18 -38 20 -22 38 16 17 32 25 32 16z m-1810
-16 c-14 -4 -45 -8 -69 -9 -43 -1 -303 -45 -338 -58 -13 -4 -15 -3 -8 5 19 21
293 69 395 70 36 0 40 -2 20 -8z m640 -47 c0 -17 -3 -38 -6 -47 -11 -28 -20
-17 -18 20 3 31 1 34 -12 24 -12 -11 -13 -10 -8 4 3 9 10 16 15 16 5 0 9 10 9
23 0 18 2 19 10 7 5 -8 10 -29 10 -47z m346 20 c-5 -6 -66 19 -66 27 0 4 16 0
35 -8 19 -9 33 -17 31 -19z m121 20 c2 -6 -3 -13 -11 -16 -9 -4 -15 -1 -13 5
1 6 -4 13 -12 16 -8 3 -11 0 -7 -7 4 -6 2 -11 -3 -11 -6 0 -11 7 -11 15 0 18
51 16 57 -2z m431 -10 c2 -13 -3 -23 -13 -26 -12 -4 -11 -5 2 -3 11 1 19 11
21 24 3 20 8 23 30 17 41 -10 57 -47 26 -59 -27 -10 -65 -7 -99 10 -30 14 -32
17 -21 40 14 30 50 29 54 -3z m972 -17 c14 -13 34 -29 45 -35 18 -11 17 -12
-9 -6 -17 4 -45 20 -63 36 -19 16 -41 29 -49 29 -8 0 -13 4 -9 10 8 13 54 -5
85 -34z m-2397 27 c-7 -2 -19 -2 -25 0 -7 3 -2 5 12 5 14 0 19 -2 13 -5z
m1053 -5 c5 -8 2 -9 -9 -5 -10 3 -17 2 -17 -4 0 -6 -4 -7 -10 -4 -5 3 -10 10
-10 16 0 13 37 11 46 -3z m-866 -19 c0 -6 -4 -7 -10 -4 -5 3 -10 11 -10 16 0
6 5 7 10 4 6 -3 10 -11 10 -16z m900 11 c0 -5 -2 -10 -4 -10 -3 0 -8 5 -11 10
-3 6 -1 10 4 10 6 0 11 -4 11 -10z m30 0 c0 -5 -4 -10 -10 -10 -5 0 -10 5 -10
10 0 6 5 10 10 10 6 0 10 -4 10 -10z m-1625 -18 c-3 -3 -11 0 -18 7 -9 10 -8
11 6 5 10 -3 15 -9 12 -12z m423 11 c-21 -2 -55 -2 -75 0 -21 2 -4 4 37 4 41
0 58 -2 38 -4z m1027 -7 c18 -13 18 -14 -8 -9 -15 3 -27 9 -27 14 0 13 13 11
35 -5z m205 4 c0 -5 -4 -10 -10 -10 -5 0 -10 5 -10 10 0 6 5 10 10 10 6 0 10
-4 10 -10z m55 1 c3 -5 1 -12 -5 -16 -5 -3 -10 1 -10 9 0 18 6 21 15 7z m595
-23 c11 -18 20 -26 20 -18 1 11 4 10 16 -5 21 -28 14 -65 -16 -84 -13 -9 -21
-11 -17 -5 4 7 0 15 -9 18 -15 6 -15 8 0 31 17 25 16 25 -3 13 -17 -11 -23
-10 -37 4 -16 15 -16 18 0 34 9 9 15 23 12 30 -10 27 15 13 34 -18z m-1881 12
c41 0 72 -2 70 -4 -2 -2 -47 -6 -99 -10 -136 -9 -340 -38 -340 -48 0 -5 -4 -6
-10 -3 -5 3 -10 1 -10 -4 0 -6 -8 -11 -17 -12 -14 0 -12 -3 5 -10 27 -10 155
18 146 32 -3 5 0 9 5 9 6 0 11 -4 11 -9 0 -4 12 -6 26 -3 20 4 23 7 12 14 -10
7 -8 8 5 4 10 -3 28 -6 40 -7 12 0 -47 -18 -130 -39 -84 -21 -158 -42 -164
-46 -9 -5 -10 -2 -5 12 4 10 10 33 13 51 5 27 11 33 49 43 25 7 47 10 51 6 3
-3 -4 -6 -17 -6 -13 0 -21 -2 -18 -5 3 -3 45 1 93 10 48 8 106 16 129 17 l41
1 -45 7 c-37 6 -33 7 20 4 36 -2 98 -4 139 -4z m331 2 c0 -5 -7 -9 -15 -9 -8
0 -15 4 -15 9 0 4 7 8 15 8 8 0 15 -4 15 -8z m1016 -10 c1 -7 2 -17 3 -23 0
-5 6 -7 11 -4 6 3 10 2 10 -3 0 -17 -13 -21 -26 -7 -8 8 -21 12 -29 9 -7 -3
-22 -1 -32 5 -14 8 -10 9 19 7 34 -3 36 -2 27 17 -9 15 -8 18 3 15 7 -3 14
-10 14 -16z m294 -4 c14 -13 28 -22 31 -21 4 1 15 -7 25 -18 23 -25 10 -50
-32 -61 -22 -6 -32 -4 -42 9 -10 15 -9 19 13 30 14 8 25 16 25 19 0 3 -4 2
-10 -1 -22 -13 -78 -14 -89 -1 -9 11 -7 15 10 19 11 3 23 15 26 26 7 27 14 26
43 -1z m1100 17 c0 -10 -73 -35 -83 -28 -5 3 -7 1 -3 -5 3 -6 1 -14 -5 -18 -8
-4 -9 -3 -5 4 10 16 -14 14 -44 -3 -14 -8 -36 -14 -50 -14 -23 0 -23 1 -5 9
11 4 41 16 68 25 26 9 45 20 43 24 -3 4 15 8 40 9 24 1 44 -1 44 -3z m-2977
-12 c-7 -2 -21 -2 -30 0 -10 3 -4 5 12 5 17 0 24 -2 18 -5z m-60 -10 c-7 -2
-19 -2 -25 0 -7 3 -2 5 12 5 14 0 19 -2 13 -5z m591 -35 c-6 -9 -44 -6 -44 4
0 4 5 8 11 8 8 0 7 6 -2 17 -11 13 -8 13 12 -2 15 -11 25 -23 23 -27z m941 21
c12 -5 3 -6 -26 -4 -25 3 -57 9 -70 14 -18 8 -12 8 26 4 28 -3 59 -10 70 -14z
m176 -2 c-10 -9 -11 -8 -5 6 3 10 9 15 12 12 3 -3 0 -11 -7 -18z m26 1 c-3 -8
-6 -5 -6 6 -1 11 2 17 5 13 3 -3 4 -12 1 -19z m893 1 c0 -6 -4 -7 -10 -4 -5 3
-10 11 -10 16 0 6 5 7 10 4 6 -3 10 -11 10 -16z m120 6 c11 -13 8 -15 -18 -15
-17 0 -32 6 -36 15 -4 11 1 15 18 15 13 0 29 -7 36 -15z m-2393 -1 c-3 -3 -12
-4 -19 -1 -8 3 -5 6 6 6 11 1 17 -2 13 -5z m-162 -14 c8 -13 -15 -13 -35 0
-12 8 -11 10 7 10 12 0 25 -4 28 -10z m485 -6 c0 -8 -4 -12 -10 -9 -5 3 -10
10 -10 16 0 5 5 9 10 9 6 0 10 -7 10 -16z m1090 12 c0 -3 -4 -8 -10 -11 -5 -3
-10 -1 -10 4 0 6 5 11 10 11 6 0 10 -2 10 -4z m-36 -19 c3 4 6 -2 6 -12 0 -14
-3 -16 -11 -8 -6 6 -17 9 -24 7 -7 -3 -15 2 -18 10 -5 12 -2 13 17 6 13 -5 27
-6 30 -3z m-1379 -7 c-3 -5 -18 -10 -33 -10 -30 0 -256 -40 -367 -64 -86 -19
-115 -19 -55 0 50 16 76 22 230 53 170 33 236 39 225 21z m278 -3 c3 -8 0 -14
-7 -14 -7 0 -13 6 -13 14 0 7 4 13 8 13 4 0 9 -6 12 -13z m137 2 c0 -7 -9 -9
-24 -5 -17 4 -26 0 -34 -17 -6 -12 -11 -16 -11 -9 -1 7 -6 10 -13 6 -7 -4 -8
-3 -4 5 4 6 11 9 16 6 4 -3 10 2 14 10 6 17 56 21 56 4z m30 2 c0 -5 7 -17 16
-25 8 -9 14 -20 12 -26 -2 -5 -13 6 -26 25 -12 19 -18 35 -12 35 5 0 10 -4 10
-9z m1030 -18 c0 -12 -2 -12 -15 1 -8 8 -15 17 -15 20 0 3 7 3 15 0 8 -4 15
-13 15 -21z m495 -4 c-4 -5 -1 -9 4 -9 6 0 11 -5 11 -12 0 -6 -8 -3 -20 7 -19
17 -18 41 1 29 5 -3 7 -10 4 -15z m370 3 c-3 -3 -11 0 -18 7 -9 10 -8 11 6 5
10 -3 15 -9 12 -12z m55 -9 c0 -26 -1 -26 -17 -10 -16 16 -16 19 -3 27 20 13
20 13 20 -17z m-2795 7 c-11 -5 -27 -9 -35 -9 -9 0 -8 4 5 9 11 5 27 9 35 9 9
0 8 -4 -5 -9z m1835 -11 c0 -6 -4 -7 -10 -4 -5 3 -10 11 -10 16 0 6 5 7 10 4
6 -3 10 -11 10 -16z m-1204 2 c-4 -5 0 -12 6 -14 8 -3 6 -6 -4 -6 -18 -1 -24
10 -11 22 9 10 15 8 9 -2z m324 5 c0 -3 -4 -8 -10 -11 -5 -3 -10 -1 -10 4 0 6
5 11 10 11 6 0 10 -2 10 -4z m957 -12 c2 -5 -8 -11 -22 -12 -22 -2 -24 0 -13
13 14 15 30 15 35 -1z m397 -18 c6 -26 -8 -76 -22 -76 -4 0 -13 14 -19 31 -10
26 -9 34 2 46 8 8 15 19 15 24 0 18 18 0 24 -25z m-3617 -27 c23 -67 83 -124
175 -169 40 -19 74 -41 76 -49 4 -11 -1 -11 -24 2 -45 24 -119 57 -129 57 -5
0 0 -7 11 -16 18 -14 18 -15 -4 -4 -12 6 -20 15 -17 20 3 6 -6 15 -20 22 -15
6 -33 23 -41 37 l-15 26 7 -25 c14 -53 25 -73 62 -107 99 -94 150 -126 307
-190 60 -25 126 -52 146 -60 29 -12 37 -21 37 -41 l0 -25 -17 27 c-9 14 -21
24 -27 22 -6 -2 -16 0 -22 6 -8 8 -9 4 -5 -13 5 -20 0 -18 -29 15 -23 25 -38
35 -42 27 -4 -6 -1 -11 8 -11 9 0 16 -5 16 -11 0 -13 -39 -2 -61 17 -9 8 -18
11 -22 8 -9 -9 -48 6 -42 17 3 5 0 6 -7 4 -8 -3 -40 10 -72 30 -32 19 -63 32
-69 28 -5 -3 -7 -1 -3 5 8 13 -33 44 -47 35 -6 -3 -7 -1 -3 5 3 6 -17 31 -46
56 -29 25 -52 54 -53 66 -1 12 -7 25 -15 30 -7 4 -14 21 -15 37 -3 48 -5 54
-12 50 -5 -3 -8 7 -8 21 0 15 -4 44 -8 65 -12 56 9 46 30 -14z m3399 24 c11
-16 23 -36 27 -45 9 -24 -23 -61 -46 -53 -9 4 -15 11 -12 15 3 5 -3 13 -12 19
-16 9 -16 10 4 11 12 0 25 5 29 12 4 7 3 8 -5 4 -17 -11 -68 3 -68 19 0 7 11
16 24 20 13 3 23 10 23 15 0 18 16 10 36 -17z m-3447 -23 c0 -10 -3 -8 -9 5
-12 27 -12 43 0 25 5 -8 9 -22 9 -30z m1916 22 c-3 -3 -11 0 -18 7 -9 10 -8
11 6 5 10 -3 15 -9 12 -12z m430 -20 c27 -33 147 -116 193 -133 15 -6 53 -15
84 -19 32 -5 69 -17 83 -28 14 -11 60 -29 102 -38 66 -16 82 -24 122 -64 24
-25 42 -40 38 -34 -4 7 3 14 19 18 29 8 47 -1 40 -19 -6 -17 14 -35 38 -34 21
0 21 0 1 8 -11 5 -20 12 -21 17 -2 21 -17 44 -29 44 -7 0 -15 7 -19 15 -4 13
-2 13 14 5 25 -14 37 -13 22 2 -20 20 -14 31 14 24 17 -5 23 -3 19 4 -4 6 -1
17 5 25 13 16 50 21 50 7 0 -17 -13 -22 -27 -11 -8 8 -13 8 -13 1 0 -6 5 -12
12 -14 6 -2 -1 -15 -18 -31 -16 -15 -25 -27 -19 -27 5 0 22 12 37 27 26 24 28
25 28 7 0 -22 18 -44 35 -44 5 0 2 5 -8 11 -11 7 -16 20 -15 40 3 35 3 34 28
9 11 -11 27 -20 35 -20 8 0 15 -2 15 -5 0 -13 -55 -55 -71 -55 -21 0 -22 -1
-13 -24 3 -9 12 -16 20 -16 8 0 14 -5 14 -11 0 -6 9 -9 20 -6 15 4 20 0 20
-14 0 -11 10 -24 23 -29 12 -5 16 -9 10 -9 -7 -1 -13 -12 -13 -25 l0 -24 50
26 c27 14 47 29 44 34 -9 14 9 9 28 -9 17 -15 18 -15 18 1 0 17 26 50 42 52 4
1 14 2 21 3 9 1 9 3 -2 10 -8 5 -9 11 -3 15 6 3 13 2 17 -4 4 -6 10 -8 15 -5
5 3 11 2 14 -3 3 -5 -15 -21 -39 -37 -25 -15 -45 -31 -45 -36 0 -4 -10 -11
-22 -15 -12 -3 -30 -14 -40 -24 -28 -25 -77 -33 -103 -16 -20 13 -24 12 -48
-14 -30 -31 -83 -54 -92 -39 -4 5 -1 9 6 9 8 0 8 4 -1 15 -8 9 -30 15 -56 15
-24 0 -44 3 -44 8 0 4 26 7 58 8 31 0 65 5 76 11 16 9 15 10 -10 10 -16 0 -48
2 -71 3 -37 3 -41 5 -31 19 7 9 3 7 -10 -4 -20 -16 -25 -17 -32 -5 -6 8 -10
20 -10 26 0 7 -10 15 -22 19 -20 6 -20 8 -5 12 21 6 22 17 2 33 -8 7 -15 19
-15 27 0 8 -7 21 -15 29 -13 14 -15 14 -15 -1 0 -11 -5 -15 -16 -11 -9 3 -12
2 -9 -5 4 -6 13 -8 21 -5 11 4 13 0 8 -19 -3 -13 0 -40 6 -60 9 -27 9 -39 1
-46 -6 -5 -9 -6 -6 -3 2 4 -1 16 -7 28 -7 11 -11 29 -9 40 2 12 -1 16 -9 11
-9 -6 -9 -2 0 15 9 16 9 20 1 15 -14 -8 -43 13 -35 26 3 5 -4 9 -16 9 -17 0
-20 4 -15 20 5 15 3 18 -8 14 -8 -3 -17 -14 -20 -25 -8 -31 -30 -23 -23 9 3
15 3 21 0 15 -8 -18 -31 -16 -38 4 -6 14 -8 14 -21 -3 -15 -19 -15 -19 -30 0
-8 11 -15 23 -15 28 0 9 46 5 73 -7 10 -4 21 -5 24 -1 4 3 0 6 -8 6 -8 0 -23
9 -32 21 -15 17 -27 20 -70 17 -46 -3 -52 -1 -49 15 3 17 2 17 -22 2 -29 -19
-48 -13 -39 13 5 14 3 15 -8 5 -22 -21 -39 -15 -39 13 0 22 -2 24 -15 14 -24
-20 -61 -1 -53 28 1 4 -11 9 -28 12 -22 4 -29 11 -28 28 0 14 -5 22 -16 22
-22 0 -44 26 -35 41 5 8 1 9 -14 4 -17 -5 -21 -2 -21 18 0 21 4 24 29 22 19
-1 39 -13 56 -33z m700 20 c-3 -3 -11 0 -18 7 -9 10 -8 11 6 5 10 -3 15 -9 12
-12z m460 -59 c3 -18 4 -33 2 -33 -5 0 -37 94 -37 107 1 15 28 -42 35 -74z
m-1788 61 c-3 -3 -12 -4 -19 -1 -8 3 -5 6 6 6 11 1 17 -2 13 -5z m121 -15 c14
0 13 -2 -3 -9 -11 -5 -27 -9 -35 -9 -9 0 -8 4 5 9 33 14 -5 11 -60 -5 -36 -11
-41 -13 -15 -10 19 3 49 1 65 -4 l30 -8 -28 -8 c-15 -4 -26 -10 -23 -12 3 -3
21 0 42 7 20 7 32 15 26 19 -6 4 7 6 30 6 l41 0 -33 -13 c-18 -7 -30 -15 -28
-18 3 -2 22 3 44 12 37 16 196 28 173 13 -6 -4 8 -10 32 -14 l44 -8 -38 -11
c-22 -6 -35 -15 -31 -19 5 -4 1 -5 -7 -2 -22 8 -72 -12 -63 -27 5 -8 2 -9 -12
-4 -14 5 -16 4 -8 -4 6 -6 19 -8 28 -4 14 5 15 9 4 15 -8 6 -2 8 17 7 17 -1
41 1 55 5 14 4 19 4 11 1 -11 -5 -11 -8 0 -16 10 -7 8 -8 -7 -3 -19 5 -134
-37 -134 -50 0 -2 25 6 56 20 63 28 68 29 60 16 -4 -5 -1 -11 4 -13 6 -2 -48
-38 -119 -81 -150 -90 -230 -149 -212 -155 9 -3 7 -10 -6 -25 -15 -18 -13 -17
15 3 35 26 41 36 15 26 -15 -6 -15 -4 2 14 21 23 44 28 25 5 -18 -21 -3 -19
32 6 16 12 31 19 34 16 2 -2 -8 -12 -23 -22 -53 -34 -123 -98 -117 -106 11
-18 34 -7 151 70 179 118 310 187 288 151 -4 -7 3 -7 20 0 34 13 48 13 40 0
-3 -6 6 -5 20 2 23 10 29 10 40 -5 7 -9 19 -17 28 -17 9 0 22 -9 30 -20 8 -11
17 -17 22 -12 5 4 5 2 2 -4 -4 -7 0 -27 8 -45 8 -19 14 -28 15 -21 0 6 5 12
11 12 5 0 -2 -15 -16 -34 l-25 -33 25 3 c17 1 25 -2 22 -9 -2 -7 -9 -12 -16
-12 -6 0 -21 -16 -32 -35 l-21 -35 21 25 c11 14 21 29 21 33 0 5 5 5 10 2 7
-4 4 -19 -10 -42 -17 -29 -18 -38 -8 -52 11 -14 11 -14 -3 -4 -13 11 -18 9
-28 -13 -6 -14 -8 -30 -5 -36 5 -7 2 -8 -6 -3 -10 6 -12 4 -7 -9 4 -10 3 -15
-3 -11 -13 8 -49 -115 -44 -150 3 -19 -10 0 -34 50 -42 87 -76 123 -169 178
-46 26 -82 38 -166 51 l-107 18 -43 -22 c-23 -12 -55 -34 -70 -48 -27 -26 -28
-26 -20 -4 5 13 13 24 18 25 18 2 44 41 33 48 -7 4 -7 13 -1 24 12 20 -7 77
-45 138 -22 37 -23 39 -5 53 41 32 90 59 162 90 42 19 70 34 62 34 -20 0 -180
-77 -217 -105 l-31 -24 -23 24 c-13 14 -38 35 -56 47 -19 13 -34 26 -34 30 0
12 52 36 147 68 59 20 78 30 58 29 -24 0 -127 -35 -217 -74 -11 -4 -18 -3 -18
3 0 6 27 21 59 33 40 16 56 26 48 32 -7 5 -2 6 13 3 14 -3 39 -2 55 3 l30 7
-33 7 c-33 7 -122 -17 -184 -49 -30 -16 -48 -18 -48 -6 0 5 25 16 56 26 31 10
54 19 52 22 -3 2 -31 -5 -63 -16 -32 -11 -60 -18 -63 -15 -3 2 1 7 9 10 77 27
105 34 128 29 20 -4 23 -3 11 5 -11 8 -7 10 20 6 28 -4 31 -3 15 5 -17 8 -15
9 10 5 17 -3 68 5 115 18 47 12 87 19 88 15 2 -5 11 -8 20 -9z m37 11 c13 -6
15 -9 5 -9 -8 0 -22 4 -30 9 -18 12 -2 12 25 0z m190 0 l20 -9 -20 0 c-11 0
-27 4 -35 9 -13 9 -13 10 0 9 8 0 24 -4 35 -9z m1230 1 c3 -5 1 -12 -5 -16 -5
-3 -10 1 -10 9 0 18 6 21 15 7z m-1338 -7 c-3 -3 -12 -4 -19 -1 -8 3 -5 6 6 6
11 1 17 -2 13 -5z m1814 -39 c10 -22 19 -51 19 -65 0 -14 7 -45 16 -69 10 -31
12 -47 4 -55 -9 -9 -15 10 -11 37 0 4 -3 7 -9 7 -5 0 -10 -6 -11 -12 0 -7 -5
-3 -11 10 -6 12 -15 22 -20 22 -4 0 -8 12 -8 28 0 15 -5 43 -11 62 -21 71 -21
79 2 77 15 -1 28 -14 40 -42z m-2328 18 c-35 -8 -63 -18 -63 -23 0 -4 -10 -6
-22 -4 -23 5 -23 4 0 -6 16 -7 30 -7 43 1 22 11 170 41 176 36 2 -3 -25 -12
-59 -22 -35 -9 -76 -24 -91 -32 -25 -13 -33 -13 -62 1 -18 9 -43 16 -56 16
-46 0 -3 19 76 33 104 19 138 19 58 0z m492 7 c13 -6 15 -9 5 -9 -8 0 -22 4
-30 9 -18 12 -2 12 25 0z m310 -8 c-3 -3 -11 0 -18 7 -9 10 -8 11 6 5 10 -3
15 -9 12 -12z m1910 8 c3 -5 1 -10 -4 -10 -6 0 -11 5 -11 10 0 6 2 10 4 10 3
0 8 -4 11 -10z m-825 -21 c0 -5 -4 -9 -8 -9 -5 0 -9 7 -9 15 0 8 4 12 9 9 4
-3 8 -9 8 -15z m-2090 7 c0 -2 -19 -14 -42 -25 l-43 -21 30 25 c26 22 55 33
55 21z m897 -12 c-3 -3 -12 -4 -19 -1 -8 3 -5 6 6 6 11 1 17 -2 13 -5z m1423
2 c0 -3 -4 -8 -10 -11 -5 -3 -10 -1 -10 4 0 6 5 11 10 11 6 0 10 -2 10 -4z
m-1283 -20 c0 -8 -6 -12 -14 -9 -7 3 -10 9 -7 14 8 14 21 11 21 -5z m-620 -2
c-3 -3 -12 -4 -19 -1 -8 3 -5 6 6 6 11 1 17 -2 13 -5z m573 -4 c0 -5 -5 -10
-11 -10 -5 0 -7 5 -4 10 3 6 8 10 11 10 2 0 4 -4 4 -10z m1440 -40 c-13 -47
-55 -71 -56 -32 -1 9 -4 29 -7 43 -5 23 -3 25 24 21 19 -3 29 0 29 9 0 9 3 10
10 3 6 -6 6 -22 0 -44z m-89 13 c-12 -20 -14 -14 -5 12 4 9 9 14 11 11 3 -2 0
-13 -6 -23z m-3582 -4 c-16 -10 -23 -4 -14 10 3 6 11 8 17 5 6 -4 5 -9 -3 -15z
m2325 4 c4 -9 2 -21 -3 -26 -11 -11 -34 1 -26 14 4 5 1 9 -5 9 -6 0 -8 5 -5
10 10 16 32 12 39 -7z m871 8 c3 -5 1 -12 -5 -16 -5 -3 -10 1 -10 9 0 18 6 21
15 7z m163 -21 c0 -16 -3 -30 -8 -30 -5 0 -7 7 -4 15 5 11 2 13 -11 9 -16 -6
-16 -5 1 14 10 12 19 22 20 22 0 0 1 -13 2 -30z m120 -37 c-9 -12 -9 -15 0 -9
25 15 12 -36 -17 -65 -28 -27 -74 -39 -84 -21 -8 12 4 62 14 57 4 -3 23 1 41
10 18 8 23 12 10 9 -26 -6 -52 11 -52 35 0 11 9 17 27 19 15 1 34 9 43 17 13
14 16 13 23 -10 6 -18 5 -31 -5 -42z m-1919 53 c-15 -14 -89 -45 -89 -37 0 5
17 16 38 24 35 15 60 21 51 13z m649 -15 c11 -7 11 -9 -1 -14 -16 -6 -27 0
-27 15 0 10 11 10 28 -1z m952 -1 c0 -5 -4 -10 -10 -10 -5 0 -10 5 -10 10 0 6
5 10 10 10 6 0 10 -4 10 -10z m544 -6 c3 -8 2 -12 -4 -9 -6 3 -10 10 -10 16 0
14 7 11 14 -7z m-1322 -28 c10 -16 -1 -26 -28 -26 -25 0 -28 7 -18 34 6 15 33
11 46 -8z m858 -3 c0 -20 -23 -11 -26 9 -1 11 3 15 12 11 8 -3 14 -12 14 -20z
m333 7 c-3 -11 -10 -23 -16 -27 -5 -3 -8 -2 -5 3 3 5 8 17 11 27 9 24 16 22
10 -3z m-3559 -5 c-4 -8 -8 -15 -10 -15 -2 0 -4 7 -4 15 0 8 4 15 10 15 5 0 7
-7 4 -15z m2213 2 c0 -8 -6 -14 -14 -14 -14 0 -17 10 -6 20 10 11 20 8 20 -6z
m937 -2 c-6 -16 -34 -21 -34 -7 0 13 11 22 26 22 8 0 11 -6 8 -15z m186 -7
c12 4 12 2 3 -8 -10 -11 -15 -11 -28 0 -8 7 -15 18 -15 24 0 6 6 4 13 -5 7 -9
19 -14 27 -11z m-1030 -15 c0 -7 -6 -13 -13 -13 -8 0 -14 6 -14 13 0 8 6 14
14 14 7 0 13 -6 13 -14z m940 -29 c0 -7 -5 -16 -12 -20 -6 -4 -8 -3 -4 4 3 6
2 13 -4 17 -5 3 -10 -1 -10 -9 0 -19 -10 -20 -34 -3 -13 9 -16 20 -12 35 7 21
8 21 42 5 18 -9 34 -22 34 -29z m1004 21 c-16 -25 -34 -32 -48 -18 -8 8 33 42
52 43 9 0 8 -7 -4 -25z m-1999 -2 c-2 -10 -4 -22 -4 -28 -1 -5 -5 -3 -11 5 -5
9 -5 19 2 27 14 17 17 16 13 -4z m-47 -10 c2 -7 -2 -13 -10 -13 -28 0 -208
-99 -328 -179 -69 -46 -114 -71 -100 -56 24 26 169 125 320 219 73 45 109 54
118 29z m209 11 c29 -8 20 -24 -13 -24 -15 0 -24 6 -24 15 0 17 4 18 37 9z
m717 -9 c-4 -8 -13 -15 -21 -15 -13 0 -13 3 -3 15 7 8 16 15 21 15 5 0 6 -7 3
-15z m506 1 c0 -17 -87 -126 -101 -126 -6 0 -8 4 -4 9 3 6 -3 15 -12 21 -15 8
-12 9 11 4 21 -5 27 -4 22 5 -4 6 -1 11 8 11 10 0 13 6 10 15 -4 8 -10 13 -14
10 -5 -3 -12 0 -16 7 -4 7 -4 10 0 6 10 -8 36 14 29 25 -2 4 1 8 6 8 26 3 30
4 37 12 12 12 24 8 24 -7z m-3630 -16 c14 23 41 -71 31 -110 -10 -38 -10 -37
-15 53 -3 39 -16 64 -17 31 0 -18 -1 -18 -9 1 -5 11 -8 27 -8 35 0 9 2 7 5 -4
4 -14 7 -15 13 -6z m2060 15 c0 -2 -20 -16 -45 -31 -25 -14 -43 -29 -40 -34 3
-4 -3 -7 -13 -6 -9 0 -16 -4 -15 -11 2 -7 -17 -26 -41 -43 -46 -31 -62 -37
-51 -20 9 15 -7 12 -29 -5 -25 -19 -45 -20 -26 -1 14 13 249 156 256 156 2 0
4 -2 4 -5z m286 -8 c8 3 14 -1 14 -11 0 -18 -17 -21 -39 -7 -8 5 -10 14 -5 22
5 9 9 10 11 2 3 -7 11 -9 19 -6z m-60 -22 c-3 -8 -1 -15 4 -15 6 0 10 -4 10
-10 0 -5 -7 -10 -15 -10 -15 0 -21 31 -8 43 11 12 15 8 9 -8z m895 -6 c36 -25
40 -54 7 -43 -33 10 -48 24 -48 45 0 24 5 24 41 -2z m999 17 c0 -2 -7 -6 -15
-10 -8 -3 -15 -1 -15 4 0 6 7 10 15 10 8 0 15 -2 15 -4z m-1966 -19 c10 -10 6
-13 -26 -13 -43 -2 -48 3 -15 16 29 12 27 12 41 -3z m196 -22 c0 -13 5 -27 10
-30 17 -11 11 -35 -9 -35 -25 0 -37 18 -22 33 7 7 6 13 -5 21 -18 14 -8 47 12
39 8 -3 14 -16 14 -28z m80 26 c0 -10 -24 -21 -46 -21 -8 0 -14 7 -14 15 0 10
10 15 30 15 17 0 30 -4 30 -9z m1750 -6 c11 -13 10 -18 -6 -29 -11 -8 -21 -10
-25 -5 -10 17 -47 -36 -65 -96 -16 -54 -19 -57 -22 -30 -4 25 -6 27 -11 11 -7
-17 -8 -17 -14 -3 -3 9 3 27 14 40 10 14 19 34 19 44 0 24 19 43 42 43 10 0
18 5 18 11 0 6 9 8 20 4 11 -3 20 -2 20 4 0 5 -10 12 -22 14 -22 4 -22 4 -2 6
12 0 27 -6 34 -14z m-1690 -10 c16 -19 5 -35 -25 -35 -29 0 -40 26 -17 39 23
14 28 13 42 -4z m765 5 c-3 -5 -10 -10 -16 -10 -5 0 -9 5 -9 10 0 6 7 10 16
10 8 0 12 -4 9 -10z m820 0 c3 -5 -3 -10 -14 -10 -12 0 -21 -4 -21 -10 0 -5
-5 -9 -11 -7 -6 1 -21 -23 -32 -53 -20 -49 -22 -52 -25 -27 -2 16 -1 36 3 45
3 10 5 18 3 19 -2 1 8 13 21 27 25 26 65 35 76 16z m-1790 -11 c-4 -6 1 -17
11 -24 18 -14 18 -14 -2 -15 -11 0 -24 3 -27 6 -6 7 10 44 19 44 3 0 2 -5 -1
-11z m319 3 c3 -5 -8 -6 -25 -4 -16 2 -29 6 -29 8 0 8 49 4 54 -4z m-59 -12
c4 -6 4 -18 1 -27 -5 -12 -9 -13 -21 -3 -8 7 -15 19 -15 26 0 16 26 19 35 4z
m820 -34 c-9 -14 -26 -28 -37 -32 -14 -4 -17 -9 -9 -13 15 -10 -12 -35 -31
-29 -7 3 -19 -1 -26 -9 -15 -14 -42 -18 -42 -5 0 10 35 29 65 35 16 4 15 5 -5
6 -21 1 -25 6 -25 30 0 19 4 27 13 23 7 -2 23 0 35 5 76 36 91 33 62 -11z
m395 19 c14 -19 14 -19 -2 -6 -10 7 -18 18 -18 24 0 6 1 8 3 6 1 -2 9 -13 17
-24z m-1341 2 c13 -16 5 -27 -21 -27 -18 0 -25 20 -11 33 10 10 19 8 32 -6z
m821 3 c0 -5 -4 -10 -10 -10 -5 0 -10 5 -10 10 0 6 5 10 10 10 6 0 10 -4 10
-10z m-35 -10 c-3 -5 -11 -10 -16 -10 -6 0 -7 5 -4 10 3 6 11 10 16 10 6 0 7
-4 4 -10z m-700 -30 c-5 -8 -11 -8 -17 -2 -6 6 -7 16 -3 22 5 8 11 8 17 2 6
-6 7 -16 3 -22z m660 20 c-7 -12 12 -40 26 -40 5 0 6 8 3 18 -5 15 -4 15 6 -1
7 -10 10 -21 7 -24 -9 -9 -45 7 -51 23 -6 15 0 34 10 34 3 0 2 -5 -1 -10z
m1022 -12 c-3 -8 -6 -5 -6 6 -1 11 2 17 5 13 3 -3 4 -12 1 -19z m-1727 -9 c0
-5 -7 -9 -15 -9 -15 0 -20 12 -9 23 8 8 24 -1 24 -14z m450 5 c0 -2 -7 -4 -15
-4 -8 0 -15 4 -15 10 0 5 7 7 15 4 8 -4 15 -8 15 -10z m995 -4 c-10 -11 -28
-20 -39 -20 -18 0 -17 3 9 19 39 26 53 26 30 1z m-1335 -4 c0 -8 -5 -18 -11
-22 -14 -8 -33 11 -25 25 10 16 36 13 36 -3z m1548 -48 c-4 -34 -6 -70 -2 -80
9 -29 55 -70 71 -64 8 4 26 9 40 13 24 5 25 4 20 -18 -4 -13 -7 -33 -7 -43 0
-17 -3 -16 -23 8 -14 16 -29 24 -38 21 -9 -3 -27 7 -44 25 -26 28 -30 38 -31
98 -1 56 8 102 20 102 1 0 -1 -28 -6 -62z m262 37 c-7 -8 -20 -15 -29 -15 -12
0 -10 5 9 20 28 21 39 18 20 -5z m-1960 0 c0 -8 -6 -15 -14 -15 -17 0 -28 14
-19 24 12 12 33 6 33 -9z m220 -6 c0 -12 -37 -12 -44 0 -7 11 14 20 32 13 6
-2 12 -8 12 -13z m796 12 c-4 -5 0 -12 6 -15 16 -6 -18 -36 -41 -36 -14 0 -14
1 -1 10 8 5 11 10 6 10 -5 0 -1 9 9 20 19 21 30 27 21 11z m-2056 -11 c0 -5
-7 -10 -16 -10 -8 0 -12 5 -9 10 3 6 10 10 16 10 5 0 9 -4 9 -10z m2497 -11
c39 14 52 15 39 6 -14 -11 -16 -15 -5 -15 9 -1 6 -8 -10 -21 -20 -16 -33 -19
-65 -14 -38 7 -86 38 -86 56 0 5 16 -1 35 -12 l34 -21 58 21z m-1564 -4 c-3
-9 -8 -14 -10 -11 -3 3 -2 9 2 15 9 16 15 13 8 -4z m157 5 c0 -5 -7 -10 -15
-10 -8 0 -15 5 -15 10 0 6 7 10 15 10 8 0 15 -4 15 -10z m58 -7 c2 -8 -5 -13
-17 -13 -12 0 -21 6 -21 16 0 18 31 15 38 -3z m191 8 c16 -10 6 -31 -14 -31
-17 0 -28 17 -20 30 8 12 16 12 34 1z m-129 -16 c0 -8 -9 -15 -19 -15 -24 0
-36 16 -19 23 24 10 38 7 38 -8z m73 0 c1 -6 -11 -11 -28 -13 -29 -2 -29 -2
-10 13 20 16 35 16 38 0z m488 -5 c6 0 7 5 4 10 -3 6 -2 10 4 10 5 0 9 -9 8
-19 0 -11 -5 -17 -9 -15 -4 3 -8 1 -8 -4 0 -23 76 -30 112 -11 30 16 32 4 3
-15 -14 -9 -49 -20 -77 -23 -45 -5 -51 -4 -45 10 4 10 2 17 -4 17 -6 0 -7 5
-4 10 3 6 0 10 -7 11 -9 0 -10 2 -1 5 7 3 11 11 9 17 -1 7 -1 9 1 5 3 -5 9 -8
14 -8z m-55 1 c-4 -5 0 -11 6 -14 8 -2 9 -8 4 -13 -5 -5 -11 -4 -13 4 -3 6
-12 12 -21 13 -14 0 -13 2 3 9 27 11 27 11 21 1z m1225 -33 c-35 -31 -90 -38
-110 -14 -10 12 -6 13 27 9 38 -5 87 11 78 25 -2 4 5 8 16 8 18 0 16 -4 -11
-28z m-1831 19 c0 -2 -18 -22 -39 -45 -49 -51 -84 -102 -150 -217 -28 -49 -51
-86 -51 -82 0 41 144 293 187 327 22 17 53 27 53 17z m1450 -27 c-6 -12 -12
-35 -12 -51 -1 -21 -5 -28 -15 -25 -8 3 -30 -11 -52 -34 -21 -22 -44 -40 -51
-40 -9 0 -5 9 9 24 14 15 20 30 16 37 -5 7 -4 10 2 6 13 -8 37 19 29 32 -6 9
74 85 82 77 2 -2 -2 -14 -8 -26z m-2463 13 c-4 -3 -2 -12 4 -19 7 -8 7 -14 -1
-19 -6 -3 -8 -11 -5 -16 4 -5 -4 -9 -16 -9 -17 0 -19 3 -10 14 7 8 8 16 4 18
-4 3 -2 3 5 2 6 -2 12 1 12 6 0 6 -6 10 -12 10 -9 0 -8 4 2 10 17 11 26 13 17
3z m1039 -18 c-8 -30 10 -34 19 -5 6 20 25 19 25 -1 0 -6 -5 -7 -11 -3 -9 5
-10 -1 -4 -22 4 -16 7 -47 6 -69 0 -22 3 -46 8 -53 5 -9 8 14 7 57 0 39 2 71
7 71 4 0 8 -39 8 -87 1 -49 3 -80 6 -70 2 9 8 15 13 12 4 -3 6 -14 3 -24 -3
-13 -17 -21 -47 -25 -23 -4 -70 -20 -103 -35 -72 -34 -213 -130 -213 -144 0
-6 -3 -8 -6 -4 -7 6 77 168 132 255 19 28 39 51 46 50 8 -2 12 5 10 16 -2 12
1 16 9 10 8 -5 10 -3 4 5 -8 14 41 71 62 71 7 0 13 5 13 10 0 6 3 10 6 10 3 0
3 -11 0 -25z m202 12 c9 0 11 -8 7 -25 -4 -16 -2 -22 6 -17 8 5 9 1 4 -15 -5
-15 -4 -20 4 -16 6 4 11 2 11 -4 0 -6 6 -8 13 -4 6 4 -12 -16 -40 -45 -58 -57
-68 -82 -60 -144 l6 -42 -19 25 c-10 13 -16 29 -12 35 3 5 7 46 8 90 2 105 21
179 43 169 9 -3 22 -7 29 -7z m1452 -8 c0 -5 -9 -9 -20 -9 -22 0 -27 16 -7 23
15 5 27 -1 27 -14z m-2766 -2 c26 -14 25 -27 -1 -27 -8 0 -12 4 -8 9 3 6 -3
14 -12 20 -26 15 -10 13 21 -2z m1245 -21 c-5 -18 -13 -67 -18 -107 l-8 -74
-2 85 c-1 63 3 91 15 108 21 30 24 28 13 -12z m1381 24 c0 -5 -4 -10 -10 -10
-5 0 -10 5 -10 10 0 6 5 10 10 10 6 0 10 -4 10 -10z m-2983 -26 c-3 -3 -12 -4
-19 -1 -8 3 -5 6 6 6 11 1 17 -2 13 -5z m3137 -10 c11 -27 7 -37 -9 -24 -16
14 -20 40 -6 40 5 0 12 -7 15 -16z m-2819 -4 c3 -5 -1 -10 -10 -10 -9 0 -13 5
-10 10 3 6 8 10 10 10 2 0 7 -4 10 -10z m200 1 c3 -6 -4 -15 -16 -21 -15 -8
-19 -9 -15 -1 5 7 -2 11 -16 12 -23 1 -23 1 2 9 35 11 38 11 45 1z m-266 -24
c0 -9 -2 -8 -6 1 -2 6 -10 9 -15 6 -7 -4 -8 -2 -4 5 9 13 26 5 25 -12z m130
10 c8 -11 6 -18 -9 -32 -33 -30 -69 2 -38 33 16 16 33 15 47 -1z m1441 -64 c0
-3 -8 1 -18 10 -10 10 -21 15 -24 12 -2 -3 -3 9 0 25 l4 30 19 -35 c11 -19 19
-38 19 -42z m343 70 c-7 -2 -19 -2 -25 0 -7 3 -2 5 12 5 14 0 19 -2 13 -5z
m117 -23 c0 -5 -2 -10 -4 -10 -3 0 -8 5 -11 10 -3 6 -1 10 4 10 6 0 11 -4 11
-10z m890 0 c0 -5 -5 -10 -11 -10 -5 0 -7 5 -4 10 3 6 8 10 11 10 2 0 4 -4 4
-10z m-2863 -16 c0 -10 -5 -10 -21 -2 -29 15 -30 16 -3 16 13 0 24 -6 24 -14z
m98 7 c-3 -6 2 -14 10 -18 27 -16 -20 -48 -63 -44 -10 1 -10 6 -2 21 9 17 14
18 31 9 23 -12 41 -3 20 10 -12 8 -8 31 5 31 3 0 3 -4 -1 -9z m1855 -29 c0 -5
-6 -14 -12 -21 -10 -11 -10 -13 0 -7 6 4 12 2 12 -5 0 -8 4 -8 16 2 13 11 14
9 8 -17 -4 -16 -13 -36 -20 -44 -7 -8 -17 -28 -23 -44 -8 -18 -16 -26 -26 -22
-8 3 -14 1 -12 -3 3 -11 -54 -61 -70 -61 -16 0 -23 13 -15 26 4 6 31 24 59 40
29 16 53 33 53 38 0 4 -11 1 -25 -8 -14 -9 -36 -23 -49 -31 -16 -11 -33 -14
-52 -9 -25 6 -27 5 -16 -8 14 -18 9 -23 -70 -75 -55 -35 -132 -53 -150 -35 -8
8 -2 13 18 17 67 15 80 24 29 19 -37 -3 -44 -2 -25 5 22 8 22 9 5 11 -11 1
-15 4 -7 7 18 7 4 23 -16 17 -14 -5 -15 -4 -2 5 13 9 13 11 -2 11 -9 0 -19 4
-22 9 -9 14 42 0 55 -15 6 -8 19 -14 28 -14 22 0 121 58 127 75 3 7 24 17 47
20 40 7 133 52 124 61 -2 2 -25 -7 -51 -22 -32 -18 -54 -24 -72 -20 -19 5 -24
3 -18 -5 4 -8 3 -9 -4 -5 -7 4 -22 -3 -34 -15 -38 -36 -140 -77 -123 -49 4 6
-6 11 -22 11 l-28 1 30 9 c25 7 23 8 -15 4 -38 -3 -42 -2 -28 9 17 12 16 14
-5 24 -18 9 -19 11 -4 11 11 1 15 6 11 12 -5 8 -1 8 14 0 11 -6 31 -11 44 -10
19 0 20 2 5 8 -14 5 -8 9 25 18 24 6 59 23 79 36 25 17 45 23 67 19 18 -2 47
2 65 9 17 8 39 14 47 14 8 0 14 6 12 13 -2 10 2 10 18 2 11 -6 20 -14 20 -18z
m-332 11 c-10 -2 -26 -2 -35 0 -10 3 -2 5 17 5 19 0 27 -2 18 -5z m348 -21
c-18 -16 -18 -16 -6 6 6 13 14 21 18 18 3 -4 -2 -14 -12 -24z m-2086 8 c0 -5
-5 -10 -11 -10 -5 0 -7 5 -4 10 3 6 8 10 11 10 2 0 4 -4 4 -10z m60 0 c0 -5
-5 -10 -11 -10 -5 0 -7 5 -4 10 3 6 8 10 11 10 2 0 4 -4 4 -10z m274 -6 c8
-21 -13 -61 -24 -44 -5 9 -9 9 -14 1 -11 -17 -26 -3 -19 17 15 42 46 56 57 26z
m1023 -21 c-3 -10 -5 -4 -5 12 0 17 2 24 5 18 2 -7 2 -21 0 -30z m-2183 11
c24 -23 19 -27 -9 -8 -14 9 -25 18 -25 20 0 10 20 3 34 -12z m96 -5 c0 -5 -4
-9 -10 -9 -5 0 -10 7 -10 16 0 8 5 12 10 9 6 -3 10 -10 10 -16z m58 -4 c0 -14
-3 -25 -7 -25 -4 0 -8 11 -9 25 -1 14 2 25 7 25 5 0 9 -11 9 -25z m812 9 c0
-10 -6 -14 -14 -11 -7 3 -19 0 -25 -6 -6 -6 -11 -7 -11 -1 0 14 22 34 37 34 7
0 13 -7 13 -16z m-790 -10 c0 -8 -5 -12 -10 -9 -6 4 -8 11 -5 16 9 14 15 11
15 -7z m1127 9 c-4 -3 -2 -12 4 -19 7 -8 6 -14 -2 -20 -7 -4 -9 -3 -6 3 4 6
-1 14 -10 17 -15 6 -15 8 -3 16 17 11 26 13 17 3z m-1100 -35 c0 -18 -2 -25
-4 -16 -2 9 -10 16 -16 14 -7 -1 -9 -1 -4 1 4 3 7 11 7 19 0 8 4 14 8 14 5 0
9 -15 9 -32z m53 -16 c0 -9 -5 -24 -10 -32 -7 -11 -10 -6 -11 20 -1 32 -2 33
-9 10 -8 -24 -8 -23 -9 8 -1 30 1 32 19 22 11 -6 20 -18 20 -28z m632 16 c-7
-7 -12 -8 -12 -2 0 6 3 14 7 17 3 4 9 5 12 2 2 -3 -1 -11 -7 -17z m524 13 c-6
-9 21 -22 99 -44 l50 -15 -57 -1 c-59 -1 -107 12 -120 32 -12 18 -10 25 10 30
9 3 18 5 20 6 2 0 1 -3 -2 -8z m-406 -16 c0 -2 -7 -5 -15 -9 -9 -3 -15 0 -15
9 0 9 6 12 15 9 8 -4 15 -7 15 -9z m-410 -5 c0 -5 -4 -10 -10 -10 -5 0 -10 5
-10 10 0 6 5 10 10 10 6 0 10 -4 10 -10z m-460 -10 c0 -5 -2 -10 -4 -10 -3 0
-8 5 -11 10 -3 6 -1 10 4 10 6 0 11 -4 11 -10z m375 -20 c-10 -11 -22 -20 -26
-20 -4 0 2 11 14 24 12 14 24 23 26 20 2 -2 -4 -13 -14 -24z m285 26 c0 -3 -4
-8 -10 -11 -5 -3 -10 -1 -10 4 0 6 5 11 10 11 6 0 10 -2 10 -4z m122 -13 c-10
-17 -42 -27 -42 -13 0 15 20 22 20 8 0 -8 5 -6 11 5 5 9 12 17 15 17 3 0 1 -8
-4 -17z m38 13 c0 -3 -4 -8 -10 -11 -5 -3 -10 -1 -10 4 0 6 5 11 10 11 6 0 10
-2 10 -4z m381 -33 c81 -8 57 -20 -56 -26 -49 -3 -80 -3 -68 -1 14 3 21 12 20
25 -1 13 -6 17 -19 13 -13 -4 -16 -1 -12 10 5 13 10 13 40 0 19 -8 62 -17 95
-21z m-1065 -10 c-11 -11 -17 4 -9 23 7 18 8 18 11 1 2 -10 1 -21 -2 -24z
m277 23 c3 -8 0 -17 -7 -19 -10 -4 -12 1 -9 14 6 23 9 24 16 5z m307 -2 c0 -8
-7 -14 -15 -14 -8 0 -15 5 -15 11 0 5 -4 7 -10 4 -5 -3 -10 -2 -10 3 0 5 11
10 25 10 15 0 25 -6 25 -14z m264 -23 c60 -29 76 -33 127 -29 33 2 59 3 59 1
0 -1 -17 -11 -37 -21 -47 -22 -152 -29 -185 -11 -12 7 -27 12 -33 11 -5 -1 -1
5 9 13 14 11 16 15 5 15 -11 0 -11 2 -1 9 10 6 10 10 -2 20 -16 13 -25 5 -21
-21 3 -15 0 -16 -16 -7 -11 6 -17 15 -13 22 13 23 27 38 33 35 3 -2 37 -18 75
-37z m-912 -14 c-5 -20 -5 -20 -13 1 -5 12 -16 22 -24 22 -9 0 -14 4 -10 10 4
6 14 5 29 -1 17 -8 22 -17 18 -32z m93 33 c3 -5 1 -10 -4 -10 -6 0 -11 5 -11
10 0 6 2 10 4 10 3 0 8 -4 11 -10z m2163 -29 c2 -24 0 -32 -10 -29 -7 3 -13
12 -13 21 0 8 -4 19 -8 23 -12 13 -8 22 10 20 11 -2 18 -14 21 -35z m-1669 20
c8 -5 11 -16 8 -25 -9 -24 -26 -19 -19 6 3 14 2 19 -6 14 -7 -4 -12 -2 -12 3
0 13 10 14 29 2z m-469 -11 c0 -5 -9 -14 -20 -20 -16 -9 -20 -8 -20 6 0 10 5
14 15 10 8 -3 15 -1 15 4 0 6 2 10 5 10 3 0 5 -4 5 -10z m1900 -7 c0 -8 -5
-13 -12 -11 -18 6 -21 25 -3 25 8 0 15 -7 15 -14z m-1776 -4 c-6 -11 -31 -12
-37 -1 -3 4 6 8 19 8 13 1 21 -2 18 -7z m419 -6 c-8 -23 -23 -32 -40 -26 -19
7 -16 31 5 36 35 9 41 7 35 -10z m1547 -132 c11 -28 11 -34 -1 -42 -24 -14
-30 5 -33 102 l-4 94 12 -60 c7 -34 18 -76 26 -94z m-2165 128 c11 -17 0 -20
-21 -4 -17 13 -17 14 -2 15 9 0 20 -5 23 -11z m659 -5 c4 -9 4 -19 2 -21 -8
-8 -26 8 -26 23 0 19 16 18 24 -2z m1493 -16 c-3 -7 -5 -2 -5 12 0 14 2 19 5
13 2 -7 2 -19 0 -25z m-1715 0 c-7 -7 -12 -8 -12 -2 0 14 12 26 19 19 2 -3 -1
-11 -7 -17z m68 12 c0 -5 -4 -10 -10 -10 -5 0 -10 5 -10 10 0 6 5 10 10 10 6
0 10 -4 10 -10z m-802 -25 c-3 -3 -9 2 -12 12 -6 14 -5 15 5 6 7 -7 10 -15 7
-18z m857 5 c8 -12 -23 -33 -40 -26 -25 9 -18 34 10 34 14 0 27 -4 30 -8z
m314 -29 l85 -6 -37 -28 c-28 -21 -52 -29 -101 -34 -73 -7 -129 3 -105 18 10
6 11 9 1 9 -7 0 -11 4 -7 9 3 5 0 13 -6 17 -8 4 -9 3 -5 -4 4 -7 2 -12 -4 -12
-6 0 -8 -6 -4 -12 4 -7 3 -9 -1 -5 -11 10 -16 37 -7 38 4 0 17 2 29 3 32 4 38
13 22 32 -12 15 -10 15 21 -1 21 -11 68 -21 119 -24z m705 17 c-12 -38 -33
-83 -34 -72 0 6 7 27 15 47 8 19 11 37 8 41 -4 3 -1 6 6 6 8 0 10 -7 5 -22z
m523 -25 c-3 -10 -5 -2 -5 17 0 19 2 27 5 18 2 -10 2 -26 0 -35z m101 13 c8
-18 7 -29 -4 -44 -9 -13 -10 -22 -4 -25 6 -3 5 -4 -2 -3 -7 2 -13 11 -13 22
-1 10 -6 28 -12 39 -5 11 -8 25 -6 32 6 17 29 6 41 -21z m-2428 10 c0 -8 6
-16 13 -19 7 -2 8 -8 3 -13 -5 -5 -11 -4 -13 4 -3 6 -11 12 -19 12 -15 0 -19
12 -7 23 11 12 23 8 23 -7z m270 10 c0 -3 -4 -8 -10 -11 -5 -3 -10 -1 -10 4 0
6 5 11 10 11 6 0 10 -2 10 -4z m600 -4 c0 -14 -23 -32 -42 -32 -21 0 -23 11
-6 28 13 13 48 16 48 4z m-910 -11 c0 -15 -29 -33 -41 -25 -9 5 -7 11 6 21 22
15 35 17 35 4z m696 -18 c-10 -10 -19 5 -10 18 6 11 8 11 12 0 2 -7 1 -15 -2
-18z m1355 0 c-8 -15 -10 -15 -11 -2 0 17 10 32 18 25 2 -3 -1 -13 -7 -23z
m-1431 -18 c5 3 10 1 10 -5 0 -7 -7 -9 -16 -6 -9 3 -18 6 -20 6 -2 0 -4 10 -3
23 l0 22 10 -23 c5 -13 13 -20 19 -17z m1480 10 c1 19 2 18 10 -2 11 -27 24
-31 16 -5 -4 13 -1 19 9 19 16 0 18 -17 5 -57 -5 -17 -8 -19 -9 -7 -1 19 -21
24 -22 5 0 -7 -4 -4 -9 7 -5 11 -9 14 -9 7 -1 -10 -6 -9 -18 4 -13 13 -14 19
-5 22 6 2 12 11 13 20 1 10 4 7 9 -8 7 -21 8 -22 10 -5z m147 -26 c1 -42 1
-43 -6 -9 -4 20 -11 42 -15 49 -6 9 -4 12 5 9 9 -3 15 -21 16 -49z m140 29
c-3 -8 -6 -5 -6 6 -1 11 2 17 5 13 3 -3 4 -12 1 -19z m-1540 -3 c17 -18 16
-20 -14 -29 -24 -8 -38 7 -29 29 7 19 23 19 43 0z m1341 -44 c-1 -36 -2 -39
-5 -13 -2 18 -9 30 -14 27 -5 -4 -9 5 -9 19 0 18 4 24 15 20 11 -4 15 -19 13
-53z m-2278 39 c0 -5 -7 -10 -16 -10 -8 0 -12 5 -9 10 3 6 10 10 16 10 5 0 9
-4 9 -10z m115 0 c3 -6 -1 -13 -10 -16 -19 -8 -30 0 -20 15 8 14 22 14 30 1z
m453 -15 c-3 -3 -9 2 -12 12 -6 14 -5 15 5 6 7 -7 10 -15 7 -18z m312 15 c0
-5 -5 -10 -11 -10 -5 0 -7 5 -4 10 3 6 8 10 11 10 2 0 4 -4 4 -10z m-840 -10
c0 -5 -7 -10 -15 -10 -8 0 -15 5 -15 10 0 6 7 10 15 10 8 0 15 -4 15 -10z
m2870 -44 l-33 -31 29 42 c16 23 31 37 33 31 2 -6 -11 -24 -29 -42z m-2838 29
c0 -5 -5 -11 -11 -13 -6 -2 -11 4 -11 13 0 9 5 15 11 13 6 -2 11 -8 11 -13z
m2225 -52 c-2 -16 -4 -5 -4 22 0 28 2 40 4 28 2 -13 2 -35 0 -50z m-2375 35
c-7 -7 -12 -8 -12 -2 0 14 12 26 19 19 2 -3 -1 -11 -7 -17z m45 16 c-3 -3 -12
-4 -19 -1 -8 3 -5 6 6 6 11 1 17 -2 13 -5z m48 -4 c3 -5 -3 -10 -14 -10 -12 0
-21 5 -21 10 0 6 6 10 14 10 8 0 18 -4 21 -10z m145 0 c0 -5 -4 -10 -9 -10 -6
0 -13 5 -16 10 -3 6 1 10 9 10 9 0 16 -4 16 -10z m1378 -38 c17 -25 1 -30 -22
-7 -18 19 -34 19 -80 0 -20 -8 -36 -13 -36 -10 0 7 43 28 75 36 l30 7 -30 2
c-26 1 -27 3 -10 10 23 9 51 -5 73 -38z m779 -14 c-2 -13 -4 -3 -4 22 0 25 2
35 4 23 2 -13 2 -33 0 -45z m148 30 c-4 -23 -3 -29 3 -19 8 11 10 7 9 -12 -2
-35 -5 -34 -23 8 -16 39 -18 57 -4 35 8 -13 10 -12 10 3 0 9 3 17 6 17 3 0 3
-15 -1 -32z m-2383 10 c15 9 31 13 35 8 9 -9 -17 -27 -29 -20 -4 3 -8 0 -8 -6
0 -8 -9 -10 -27 -5 -35 8 -37 11 -27 26 6 10 10 9 18 -3 9 -15 12 -15 38 0z
m168 1 c12 -8 10 -9 -7 -4 -15 4 -23 1 -26 -12 -4 -14 -5 -13 -6 5 -1 24 15
28 39 11z m905 -17 c36 1 65 2 65 0 0 -1 -15 -16 -32 -33 -32 -30 -34 -30
-113 -24 -44 3 -91 8 -104 12 -16 4 -22 3 -17 -5 9 -15 113 -35 147 -28 38 7
37 -5 -2 -33 -28 -21 -39 -23 -98 -18 -77 6 -103 15 -94 30 4 6 0 8 -8 5 -9
-4 -15 1 -16 11 -1 10 5 18 12 18 8 0 12 -4 9 -9 -9 -14 13 -9 25 6 9 11 9 15
-1 19 -8 4 -7 6 5 6 9 1 17 5 17 10 0 5 8 7 19 4 13 -3 20 2 26 19 4 13 7 26
6 30 0 4 20 0 44 -9 28 -9 69 -13 110 -11z m1604 -18 c-42 -44 -79 -64 -116
-63 -18 1 -21 3 -10 6 14 4 16 8 7 18 -9 11 -6 15 17 20 50 11 88 28 107 47
10 11 21 17 24 14 3 -4 -10 -22 -29 -42z m-2773 24 c5 -7 -2 -9 -20 -6 -27 5
-39 -16 -13 -25 6 -2 8 -8 4 -13 -4 -5 -12 -2 -17 6 -8 13 -10 12 -10 -2 0
-10 -7 -18 -15 -18 -9 0 -15 7 -13 16 2 10 -3 19 -10 21 -9 4 -11 -2 -7 -20 5
-18 2 -26 -12 -31 -10 -3 -24 -9 -32 -12 -9 -4 -12 -2 -9 7 3 8 11 14 19 14 8
0 13 9 12 21 -3 26 35 52 43 29 8 -20 21 -19 26 3 5 20 44 27 54 10z m929 2
c-3 -5 -14 -14 -25 -20 -13 -7 -19 -6 -24 6 -3 8 -2 12 4 9 6 -3 10 -1 10 4 0
6 9 11 21 11 11 0 17 -4 14 -10z m-875 -32 c0 -12 -10 -9 -26 6 -20 21 -17 28
6 14 11 -7 20 -16 20 -20z m240 23 c0 -15 -32 -23 -44 -11 -8 8 -6 9 5 5 10
-4 20 -2 24 4 8 13 15 14 15 2z m570 5 c0 -11 -19 -15 -25 -6 -3 5 1 10 9 10
9 0 16 -2 16 -4z m1507 -33 c-3 -10 -5 -4 -5 12 0 17 2 24 5 18 2 -7 2 -21 0
-30z m-1746 10 c13 -16 12 -17 -3 -4 -10 7 -18 15 -18 17 0 8 8 3 21 -13z
m-616 -3 c3 -5 -1 -10 -10 -10 -9 0 -13 5 -10 10 3 6 8 10 10 10 2 0 7 -4 10
-10z m578 -4 c4 -10 1 -13 -8 -9 -8 3 -12 9 -9 14 7 12 11 11 17 -5z m141 -5
c3 -4 3 -11 0 -14 -8 -8 -34 3 -34 14 0 11 27 12 34 0z m136 -1 c0 -5 -5 -10
-11 -10 -5 0 -7 5 -4 10 3 6 8 10 11 10 2 0 4 -4 4 -10z m1760 0 c0 -5 -4 -10
-10 -10 -5 0 -10 5 -10 10 0 6 5 10 10 10 6 0 10 -4 10 -10z m-1836 -15 c-4
-8 -13 -15 -20 -15 -12 0 -12 3 -2 15 17 19 29 19 22 0z m734 8 c-10 -2 -26
-2 -35 0 -10 3 -2 5 17 5 19 0 27 -2 18 -5z m1422 -21 c0 -16 -6 -37 -14 -47
-13 -18 -14 -18 -24 2 -9 17 -8 26 9 47 26 33 29 33 29 -2z m-2940 14 c0 -3
-4 -8 -10 -11 -5 -3 -10 -1 -10 4 0 6 5 11 10 11 6 0 10 -2 10 -4z m325 -6 c3
-5 1 -10 -4 -10 -6 0 -11 5 -11 10 0 6 2 10 4 10 3 0 8 -4 11 -10z m278 -11
c-4 -15 -8 -17 -14 -8 -6 11 4 28 18 29 0 0 -1 -9 -4 -21z m1018 -6 l24 -28
-30 25 c-16 14 -32 26 -34 28 -2 1 0 2 6 2 5 0 20 -12 34 -27z m-1061 7 c0 -5
-5 -10 -11 -10 -5 0 -7 5 -4 10 3 6 8 10 11 10 2 0 4 -4 4 -10z m1355 1 c3 -6
2 -28 -1 -51 -8 -50 -24 -35 -24 23 0 35 12 48 25 28z m625 -2 c0 -5 -4 -7
-10 -4 -5 3 -10 1 -10 -4 0 -6 -4 -11 -10 -11 -5 0 -10 7 -10 15 0 8 9 15 20
15 11 0 20 -5 20 -11z m-2580 -9 c0 -5 -7 -10 -16 -10 -8 0 -12 5 -9 10 3 6
10 10 16 10 5 0 9 -4 9 -10z m100 -31 c0 -5 -4 -9 -9 -9 -5 0 -16 -3 -25 -6
-12 -5 -15 1 -13 24 2 28 3 28 25 14 12 -8 22 -18 22 -23z m70 31 c0 -5 -7
-10 -15 -10 -8 0 -15 5 -15 10 0 6 7 10 15 10 8 0 15 -4 15 -10z m310 -5 c10
-12 9 -15 -4 -15 -10 0 -15 4 -11 9 3 5 -5 12 -17 14 -22 4 -22 4 -2 6 12 0
27 -6 34 -14z m210 5 c0 -5 -5 -10 -11 -10 -5 0 -7 5 -4 10 3 6 8 10 11 10 2
0 4 -4 4 -10z m1624 -40 c6 -6 -9 -3 -33 8 -25 10 -46 23 -48 29 -4 12 63 -19
81 -37z m339 43 c-7 -2 -21 -2 -30 0 -10 3 -4 5 12 5 17 0 24 -2 18 -5z m251
-1 c3 -5 -1 -9 -9 -9 -8 0 -15 4 -15 9 0 4 4 8 9 8 6 0 12 -4 15 -8z m-2944
-13 c0 -10 -40 -23 -47 -16 -3 3 -2 10 1 16 7 11 46 11 46 0z m605 1 c3 -6 -1
-7 -9 -4 -18 7 -21 14 -7 14 6 0 13 -4 16 -10z m218 3 c-7 -2 -19 -2 -25 0 -7
3 -2 5 12 5 14 0 19 -2 13 -5z m812 -14 c4 -12 4 -41 0 -66 -5 -34 -10 -43
-23 -41 -9 3 -16 10 -14 16 1 8 -14 13 -40 14 l-43 1 37 4 c28 3 36 8 31 19
-4 12 0 14 22 8 l28 -7 -21 21 c-11 11 -31 22 -44 25 -20 4 -20 4 5 6 16 0 26
5 22 11 -3 6 3 10 14 10 11 0 22 -9 26 -21z m1195 11 c0 -5 -14 -26 -32 -45
-32 -37 -41 -38 -94 -18 -12 4 -15 3 -10 -6 6 -9 0 -10 -21 -5 -37 9 -42 14
-12 14 29 0 56 16 46 27 -4 4 -17 2 -27 -5 -23 -14 -44 -16 -35 -3 3 5 -3 12
-12 14 -10 3 16 5 57 6 44 1 85 8 100 16 30 17 40 18 40 5z m-2380 -10 c0 -5
-4 -10 -10 -10 -5 0 -10 5 -10 10 0 6 5 10 10 10 6 0 10 -4 10 -10z m40 0 c0
-5 -8 -10 -17 -10 -15 0 -16 2 -3 10 19 12 20 12 20 0z m167 -4 c-5 -15 -24
-18 -24 -3 0 8 6 14 14 14 7 0 12 -5 10 -11z m350 -32 c21 -7 59 -13 86 -14
58 0 62 -15 6 -23 -22 -3 -48 -12 -58 -21 -19 -17 -67 -9 -99 16 -15 12 -16
11 -3 -4 8 -11 9 -18 3 -18 -16 0 -43 30 -37 41 4 5 0 6 -8 3 -20 -7 -32 15
-17 29 10 9 11 9 6 0 -4 -7 0 -10 11 -8 10 2 22 4 26 4 5 1 5 6 1 12 -4 8 -9
7 -16 -2 -8 -11 -9 -11 -5 1 2 8 10 14 16 13 6 -2 11 2 11 9 0 6 8 4 19 -6 11
-10 37 -24 58 -32z m-1067 26 c0 -5 -4 -10 -10 -10 -5 0 -10 5 -10 10 0 6 5
10 10 10 6 0 10 -4 10 -10z m754 2 c3 -5 -1 -9 -9 -9 -8 0 -15 4 -15 9 0 4 4
8 9 8 6 0 12 -4 15 -8z m1866 -2 c0 -5 -2 -10 -4 -10 -3 0 -8 5 -11 10 -3 6
-1 10 4 10 6 0 11 -4 11 -10z m47 -12 c-3 -8 -6 -5 -6 6 -1 11 2 17 5 13 3 -3
4 -12 1 -19z m443 -42 c0 -23 -7 -47 -17 -58 -18 -20 -33 -24 -33 -8 0 6 -9
19 -20 30 -26 26 -25 37 5 44 14 4 31 18 37 32 15 32 28 14 28 -40z m-3075 34
c-4 -6 -11 -8 -16 -5 -5 4 -9 1 -9 -4 0 -6 -7 -11 -15 -11 -21 0 -19 18 3 23
31 8 43 7 37 -3z m90 -21 c-6 -9 -45 -13 -45 -5 0 2 3 11 6 20 5 12 10 13 25
5 11 -5 17 -14 14 -20z m436 14 c6 -7 19 -13 28 -13 13 1 13 3 -4 17 l-20 16
20 -8 c11 -5 40 -11 65 -15 43 -7 43 -7 10 -9 -60 -3 -105 -24 -103 -46 1 -11
0 -14 -3 -7 -5 10 -9 10 -22 0 -9 -7 -6 1 7 17 23 30 23 30 2 33 -12 2 -21 8
-21 14 0 6 -6 6 -15 -2 -12 -10 -15 -10 -15 3 0 20 55 20 71 0z m339 3 c0 -27
56 -65 135 -91 32 -10 -2 -25 -62 -25 -34 0 -57 5 -68 16 -20 20 -11 32 10 14
9 -7 17 -11 20 -9 2 2 -13 15 -33 28 -20 14 -31 17 -24 9 10 -13 10 -17 -2
-21 -17 -7 -69 30 -64 45 6 16 23 9 23 -9 0 -9 6 -18 13 -21 14 -4 16 24 2 33
-16 10 -12 21 13 33 30 15 37 14 37 -2z m-930 -6 c0 -5 -2 -10 -4 -10 -3 0 -8
5 -11 10 -3 6 -1 10 4 10 6 0 11 -4 11 -10z m787 4 c-3 -3 -12 -4 -19 -1 -8 3
-5 6 6 6 11 1 17 -2 13 -5z m848 -4 c-18 -8 -18 -9 5 -10 14 -1 19 -4 12 -7
-18 -7 -44 5 -37 17 3 5 14 10 23 9 14 0 13 -2 -3 -9z m-1649 -51 c-1 -18 -7
-24 -24 -25 -12 -1 -25 3 -29 9 -4 6 2 8 15 5 12 -4 25 -2 28 3 3 5 0 10 -5
10 -6 1 -16 2 -23 3 -6 0 -13 6 -15 13 -3 7 3 9 17 6 17 -4 19 -2 13 13 -6 17
-5 18 9 3 8 -8 15 -26 14 -40z m807 28 c3 -8 -1 -14 -8 -14 -7 0 -11 6 -8 14
3 7 6 13 8 13 2 0 5 -6 8 -13z m-766 -3 c-3 -3 -12 -4 -19 -1 -8 3 -5 6 6 6
11 1 17 -2 13 -5z m83 -15 c0 -12 -48 -34 -56 -26 -4 4 -2 13 4 20 7 8 9 16 7
19 -3 3 6 3 20 1 14 -3 25 -9 25 -14z m455 11 c-6 -10 -55 -9 -55 1 0 4 13 7
30 7 16 -1 27 -4 25 -8z m1002 -20 c-2 -9 0 -26 6 -36 7 -15 7 -16 -3 -8 -14
14 -21 76 -7 67 5 -3 7 -13 4 -23z m-912 10 c-4 -6 -1 -19 6 -28 12 -16 12
-16 -5 0 -16 14 -15 38 0 38 3 0 2 -5 -1 -10z m133 -13 c14 -3 25 1 32 11 5
10 10 12 10 5 0 -6 -5 -15 -10 -18 -6 -4 -8 -11 -5 -16 4 -5 2 -9 -4 -9 -5 0
-13 5 -16 10 -4 6 -10 8 -15 5 -4 -3 -13 2 -20 10 -7 8 -17 12 -23 8 -6 -3 -7
-1 -3 6 5 7 12 9 19 3 7 -5 22 -12 35 -15z m2112 2 c0 -11 -5 -29 -10 -40 -11
-20 -69 -55 -71 -42 -1 5 -2 13 -4 18 -1 6 -3 17 -3 26 -2 12 -10 15 -29 12
-16 -2 1 7 37 20 83 31 80 31 80 6z m280 -40 c0 -22 -8 -43 -20 -57 -20 -21
-22 -21 -45 -6 -31 20 -32 36 -2 49 12 6 28 25 36 43 17 38 31 26 31 -29z
m-2670 30 c0 -5 -4 -9 -10 -9 -5 0 -10 7 -10 16 0 8 5 12 10 9 6 -3 10 -10 10
-16z m2520 5 c0 -8 -4 -12 -10 -9 -5 3 -10 10 -10 16 0 5 5 9 10 9 6 0 10 -7
10 -16z m-2490 -3 c0 -6 -4 -13 -10 -16 -5 -3 -10 1 -10 9 0 9 5 16 10 16 6 0
10 -4 10 -9z m610 -11 c0 -5 -5 -10 -11 -10 -5 0 -7 5 -4 10 3 6 8 10 11 10 2
0 4 -4 4 -10z m34 -69 c-16 -15 -16 -15 -10 4 4 11 10 34 14 50 l7 30 3 -34
c2 -22 -2 -39 -14 -50z m-1123 59 c18 0 9 -19 -12 -25 -13 -5 -25 -2 -30 6
-10 18 0 32 18 25 8 -3 19 -6 24 -6z m724 0 c-3 -5 0 -10 7 -11 10 0 10 -2 -1
-6 -11 -5 -11 -7 0 -15 11 -8 11 -9 -1 -5 -8 2 -14 10 -12 17 2 8 -4 10 -15 6
-16 -5 -15 -4 1 9 23 17 30 19 21 5z m72 3 c-4 -3 1 -12 11 -19 15 -12 12 -13
-22 -14 l-39 0 23 20 c21 18 42 29 27 13z m837 1 c9 -3 16 -15 16 -25 0 -15
-7 -19 -32 -19 -25 0 -29 3 -18 10 11 7 11 10 2 10 -10 0 -10 3 0 15 16 17 13
16 32 9z m1070 -18 c21 -4 36 -9 34 -12 -10 -10 -82 12 -86 26 -2 10 -1 11 5
4 4 -6 25 -14 47 -18z m-2059 -4 c-3 -3 -11 0 -18 7 -9 10 -8 11 6 5 10 -3 15
-9 12 -12z m462 -4 c-3 -8 -6 -5 -6 6 -1 11 2 17 5 13 3 -3 4 -12 1 -19z
m-1207 2 c0 -5 -4 -10 -10 -10 -5 0 -10 5 -10 10 0 6 5 10 10 10 6 0 10 -4 10
-10z m550 6 c0 -3 -4 -8 -10 -11 -5 -3 -10 -1 -10 4 0 6 5 11 10 11 6 0 10 -2
10 -4z m2535 -6 c3 -5 1 -10 -4 -10 -6 0 -11 5 -11 10 0 6 2 10 4 10 3 0 8 -4
11 -10z m-2370 -10 c3 -6 -1 -7 -9 -4 -18 7 -21 14 -7 14 6 0 13 -4 16 -10z
m895 -11 c0 7 5 9 11 6 6 -4 8 -13 5 -20 -2 -7 1 -18 7 -25 9 -10 9 -12 -1 -9
-7 3 -22 20 -33 39 -12 19 -14 26 -5 16 9 -11 16 -14 16 -7z m-815 1 c3 -5 2
-10 -4 -10 -5 0 -13 5 -16 10 -3 6 -2 10 4 10 5 0 13 -4 16 -10z m2015 0 c13
-8 13 -10 -2 -10 -9 0 -20 5 -23 10 -8 13 5 13 25 0z m-2840 -26 c0 -8 -4 -12
-10 -9 -5 3 -10 13 -10 21 0 8 5 12 10 9 6 -3 10 -13 10 -21z m108 14 c-5 -15
-48 -24 -48 -10 0 14 12 22 33 22 10 0 17 -5 15 -12z m466 -3 c-4 -8 -8 -15
-10 -15 -2 0 -4 7 -4 15 0 8 4 15 10 15 5 0 7 -7 4 -15z m193 0 c-28 -27 -54
-35 -67 -20 -10 12 -9 15 4 15 9 0 16 3 16 8 0 4 13 7 29 8 23 1 27 -2 18 -11z
m2188 -22 c-4 -15 -7 -49 -6 -74 2 -29 -2 -50 -10 -55 -7 -4 -14 -3 -17 4 -2
6 -11 9 -20 6 -15 -5 -15 -4 1 6 18 11 25 36 7 25 -5 -3 -10 -2 -10 4 0 6 9
15 20 21 27 14 25 25 -5 26 -13 1 -23 -3 -22 -8 1 -5 -8 -14 -21 -19 -14 -5
-21 -5 -17 0 3 5 -5 12 -17 14 -20 4 -19 4 5 6 19 1 26 5 21 13 -4 6 -3 8 4 5
15 -10 42 3 42 19 0 13 41 47 48 39 2 -2 1 -17 -3 -32z m155 33 c0 -11 -19
-15 -25 -6 -3 5 1 10 9 10 9 0 16 -2 16 -4z m-1339 -16 c23 -13 26 -45 3 -36
-9 3 -23 6 -32 7 -11 0 -12 2 -4 6 21 8 13 21 -15 26 l-28 4 28 2 c16 0 37 -4
48 -9z m1509 -39 c0 -55 -20 -68 -56 -38 l-28 24 35 31 c18 16 37 28 41 26 5
-3 8 -22 8 -43z m-510 2 c-11 -17 -11 -17 -6 0 3 10 6 24 7 30 0 9 2 9 5 0 3
-7 0 -20 -6 -30z m73 30 c-7 -2 -19 -2 -25 0 -7 3 -2 5 12 5 14 0 19 -2 13 -5z
m-2763 -24 c0 -18 -29 -21 -45 -6 -21 22 -19 24 15 19 17 -2 30 -8 30 -13z
m468 -6 c0 -21 -2 -23 -10 -9 -5 9 -6 21 -3 26 10 16 13 12 13 -17z m369 5
c-3 -8 -6 -5 -6 6 -1 11 2 17 5 13 3 -3 4 -12 1 -19z m2213 8 c0 -3 -4 -8 -10
-11 -5 -3 -10 -1 -10 4 0 6 5 11 10 11 6 0 10 -2 10 -4z m-3140 -21 c11 -13
10 -14 -4 -9 -9 3 -16 10 -16 15 0 13 6 11 20 -6z m710 8 c-1 -14 -27 -43 -39
-43 -14 0 -14 6 -1 31 10 18 40 27 40 12z m40 -44 c-14 -32 -54 -69 -77 -69
-19 0 10 50 52 91 33 33 44 24 25 -22z m148 26 c-3 -3 -9 2 -12 12 -6 14 -5
15 5 6 7 -7 10 -15 7 -18z m-27 -18 c-10 -9 -11 -8 -5 6 3 10 9 15 12 12 3 -3
0 -11 -7 -18z m672 7 c-3 -7 -11 -10 -19 -7 -20 8 -17 22 5 20 10 0 17 -7 14
-13z m40 -1 c-3 -7 -6 -13 -8 -13 -2 0 -5 6 -8 13 -3 8 1 14 8 14 7 0 11 -6 8
-14z m231 2 c4 -11 -1 -15 -18 -15 -14 0 -32 -3 -42 -7 -11 -4 -15 -3 -11 4 4
6 1 14 -5 17 -7 3 1 3 17 0 23 -4 27 -3 15 5 -12 9 -10 11 11 11 15 0 29 -7
33 -15z m983 -7 c-3 -8 -6 -5 -6 6 -1 11 2 17 5 13 3 -3 4 -12 1 -19z m363 12
c0 -5 -2 -10 -4 -10 -3 0 -8 5 -11 10 -3 6 -1 10 4 10 6 0 11 -4 11 -10z
m-2315 -20 c-4 -6 -11 -7 -17 -4 -7 4 -8 2 -4 -4 4 -7 1 -12 -8 -12 -17 0 -21
12 -9 23 10 11 45 8 38 -3z m765 -5 c7 -9 8 -15 2 -15 -5 0 -12 7 -16 15 -3 8
-4 15 -2 15 2 0 9 -7 16 -15z m-1638 -4 c8 11 9 11 6 1 -4 -16 -22 -18 -24 -3
-2 8 -1 7 3 0 4 -8 8 -7 15 2z m908 -20 c-6 -12 -17 -21 -24 -21 -8 0 -21 -10
-29 -22 -13 -19 -16 -20 -16 -5 -1 9 4 17 10 17 5 0 7 5 3 11 -8 14 -19 2 -32
-38 -12 -37 -4 -42 23 -13 23 26 39 26 25 1 -20 -37 -87 -37 -77 0 4 15 2 16
-14 6 -11 -7 -15 -13 -10 -15 6 -2 7 -10 4 -18 -4 -11 4 -14 33 -14 l39 -1
-25 -19 c-14 -11 -34 -29 -46 -41 -24 -23 -98 -37 -108 -20 -4 6 -1 11 7 11 8
0 17 7 21 15 6 17 36 21 36 5 0 -5 5 -10 11 -10 6 0 8 9 4 21 -5 14 -3 19 3
15 17 -10 20 17 5 47 -13 26 -12 29 23 65 28 28 33 30 21 11 -12 -21 -13 -26
-2 -26 8 0 12 4 9 8 -6 11 34 31 46 24 6 -3 10 -2 10 3 0 6 7 12 14 15 11 4
13 1 10 -11 -3 -11 1 -9 12 6 20 27 30 22 14 -7z m2340 9 c6 -11 8 -20 6 -20
-3 0 -10 9 -16 20 -6 11 -8 20 -6 20 3 0 10 -9 16 -20z m109 -27 c14 -49 -8
-58 -54 -22 l-27 22 29 23 c31 25 39 22 52 -23z m-2671 12 c-12 -26 -23 -31
-33 -16 -6 10 21 41 35 41 5 0 4 -11 -2 -25z m1166 15 c38 -14 31 -30 -13 -30
-34 0 -38 3 -34 20 6 23 11 24 47 10z m996 -4 c0 -10 -7 -12 -22 -8 -21 5 -21
6 -2 13 10 4 20 8 22 8 1 1 2 -5 2 -13z m-2213 -22 c-3 -3 -12 -4 -19 -1 -8 3
-5 6 6 6 11 1 17 -2 13 -5z m1063 -18 c9 -12 8 -15 -9 -13 -21 1 -26 8 -14 20
9 9 9 9 23 -7z m1198 -11 c-3 -3 -9 2 -12 12 -6 14 -5 15 5 6 7 -7 10 -15 7
-18z m-995 1 c5 -13 0 -16 -38 -25 -5 -1 -12 6 -16 16 -6 15 -2 19 21 21 16 1
30 -4 33 -12z m957 6 c0 -5 -7 -9 -15 -9 -8 0 -12 4 -9 9 3 4 9 8 15 8 5 0 9
-4 9 -8z m-2780 -12 c0 -5 -2 -10 -4 -10 -3 0 -8 5 -11 10 -3 6 -1 10 4 10 6
0 11 -4 11 -10z m513 -10 c3 -11 1 -18 -4 -14 -5 3 -9 12 -9 20 0 20 7 17 13
-6z m-483 0 c0 -5 -4 -10 -10 -10 -5 0 -10 5 -10 10 0 6 5 10 10 10 6 0 10 -4
10 -10z m557 4 c-3 -3 -12 -4 -19 -1 -8 3 -5 6 6 6 11 1 17 -2 13 -5z m58 -4
c-3 -5 -2 -10 4 -10 6 0 7 -7 4 -17 -4 -11 -3 -14 5 -9 7 4 12 1 12 -8 0 -18
-2 -19 -24 -10 -9 3 -13 11 -11 18 3 6 0 4 -6 -5 -10 -13 -17 -14 -41 -5 -15
6 -28 14 -28 18 0 12 14 10 27 -3 8 -8 17 -4 34 15 23 26 36 35 24 16z m2275
-25 c0 -44 -34 -71 -71 -55 -24 10 -24 10 3 5 27 -5 47 8 28 20 -16 10 -12 36
8 51 26 20 32 17 32 -21z m-3042 0 c-3 -3 -9 2 -12 12 -6 14 -5 15 5 6 7 -7
10 -15 7 -18z m207 14 c12 -19 -5 -23 -22 -6 -16 16 -16 17 -1 17 9 0 20 -5
23 -11z m3228 -3 c3 -8 0 -21 -6 -30 -11 -13 -14 -13 -31 -1 -20 15 -20 15 0
30 24 18 31 18 37 1z m-1440 -10 c16 -13 16 -15 -12 -24 -24 -8 -31 -7 -35 5
-13 32 15 43 47 19z m-1932 -7 c-20 -8 -22 -14 -17 -40 5 -26 4 -29 -8 -20
-15 12 -27 57 -18 66 3 3 19 5 36 4 30 0 30 -1 7 -10z m53 3 c3 -5 -1 -9 -9
-9 -8 0 -12 4 -9 9 3 4 7 8 9 8 2 0 6 -4 9 -8z m71 -2 c3 -5 2 -10 -4 -10 -5
0 -13 5 -16 10 -3 6 -2 10 4 10 5 0 13 -4 16 -10z m63 -9 c3 -8 -1 -12 -9 -9
-7 2 -15 10 -17 17 -3 8 1 12 9 9 7 -2 15 -10 17 -17z m287 9 c3 -5 1 -10 -4
-10 -6 0 -11 5 -11 10 0 6 2 10 4 10 3 0 8 -4 11 -10z m1793 -11 c-19 -13 -28
-11 -28 5 0 9 7 12 21 9 16 -4 17 -8 7 -14z m-2028 1 c13 -8 13 -10 -2 -10
-11 0 -15 -5 -12 -15 4 -9 0 -15 -8 -15 -23 0 -28 11 -15 31 13 22 16 22 37 9z
m1993 -10 c9 -11 14 -20 11 -20 -13 0 -44 21 -44 30 0 16 14 11 33 -10z m1176
-22 c-6 -12 -17 -17 -26 -14 -8 3 -17 6 -19 6 -3 0 3 11 13 24 22 30 49 17 32
-16z m-3249 11 c0 -5 -7 -9 -15 -9 -9 0 -12 6 -9 15 6 15 24 11 24 -6z m417 6
c0 -8 -7 -15 -15 -15 -12 0 -12 3 -2 15 7 8 13 15 15 15 1 0 2 -7 2 -15z m111
-8 c17 7 15 -14 -3 -21 -8 -3 -15 -1 -15 4 0 13 -37 13 -45 0 -3 -5 -13 -6
-23 -3 -16 6 -16 6 1 -11 9 -10 22 -26 27 -37 6 -11 21 -19 36 -19 35 0 20
-18 -21 -26 -19 -3 -32 -10 -29 -15 3 -5 -19 -9 -48 -10 -37 0 -47 -3 -33 -9
18 -7 18 -8 -8 -15 -34 -9 -105 -1 -120 14 -17 17 21 40 66 41 20 0 37 -4 37
-10 0 -5 -7 -7 -15 -4 -8 4 -15 1 -15 -5 0 -17 30 -13 37 5 3 9 0 20 -8 26
-10 7 -8 8 9 3 12 -3 22 -2 22 3 0 14 -47 24 -73 16 -21 -6 -21 -5 1 11 17 13
26 14 36 6 10 -9 15 -7 19 9 3 11 11 20 17 20 9 0 9 -4 -1 -16 -11 -13 -9 -15
17 -9 25 5 26 4 7 -4 -18 -8 -21 -15 -14 -33 4 -13 17 -24 27 -25 11 -2 13 0
7 3 -7 3 -13 13 -13 22 0 13 2 14 9 3 11 -17 21 -1 16 25 -2 10 -4 23 -4 28
-1 4 -8 6 -16 2 -8 -3 -15 -1 -15 4 0 6 7 10 15 10 8 0 19 9 25 19 9 18 13 19
43 7 17 -7 38 -11 45 -9z m1507 -7 c2 -12 1 -20 -2 -16 -4 4 -8 16 -10 28 -4
28 6 18 12 -12z m-1925 -5 c-7 -8 -9 -19 -6 -24 4 -5 1 -13 -5 -17 -16 -9 -30
18 -17 33 6 7 7 13 2 13 -5 0 -2 4 6 9 19 13 34 2 20 -14z m50 9 c0 -2 -7 -4
-15 -4 -8 0 -15 4 -15 10 0 5 7 7 15 4 8 -4 15 -8 15 -10z m195 6 c-3 -5 2
-10 12 -10 17 -1 17 -2 -1 -15 -11 -8 -27 -15 -35 -14 -12 0 -11 2 3 8 15 6
16 10 7 16 -11 6 -11 9 0 16 18 11 22 11 14 -1z m1479 1 c5 -7 -34 -41 -48
-41 -8 0 -16 32 -10 41 7 12 51 12 58 0z m793 -38 c-3 -10 -5 -2 -5 17 0 19 2
27 5 18 2 -10 2 -26 0 -35z m148 37 c8 -13 -5 -13 -25 0 -13 8 -13 10 2 10 9
0 20 -4 23 -10z m-2905 -10 c0 -5 -2 -10 -4 -10 -3 0 -8 5 -11 10 -3 6 -1 10
4 10 6 0 11 -4 11 -10z m90 0 c0 -5 -2 -10 -4 -10 -3 0 -8 5 -11 10 -3 6 -1
10 4 10 6 0 11 -4 11 -10z m270 -7 c2 -2 -1 -8 -9 -12 -14 -9 -14 -20 1 -38 7
-9 7 -13 0 -13 -11 0 -26 30 -23 45 1 5 -6 15 -16 23 -16 12 -15 13 12 6 17
-4 32 -9 35 -11z m40 13 c0 -11 -19 -15 -25 -6 -3 5 1 10 9 10 9 0 16 -2 16
-4z m1875 -6 c3 -5 -3 -10 -14 -10 -12 0 -21 5 -21 10 0 6 6 10 14 10 8 0 18
-4 21 -10z m-2107 -18 c2 -7 -3 -12 -12 -12 -9 0 -16 7 -16 16 0 17 22 14 28
-4z m270 11 c-19 -5 -25 -23 -7 -23 5 0 7 -5 4 -10 -4 -6 -12 -4 -22 6 -11 11
-19 12 -26 5 -13 -13 -27 -14 -27 -2 0 9 55 29 80 29 10 0 9 -2 -2 -5z m459 1
c-3 -3 -12 -4 -19 -1 -8 3 -5 6 6 6 11 1 17 -2 13 -5z m2558 -15 c6 -6 3 -15
-8 -26 -15 -16 -18 -16 -35 1 -19 16 -20 16 -25 -4 -5 -20 -6 -20 -26 -4 -19
17 -19 17 12 34 31 17 63 16 82 -1z m-3465 -10 c0 -6 -4 -7 -10 -4 -5 3 -10
11 -10 16 0 6 5 7 10 4 6 -3 10 -11 10 -16z m50 6 c14 -16 10 -18 -14 -9 -9 3
-16 10 -16 15 0 14 16 11 30 -6z m235 6 c7 -12 -12 -24 -25 -16 -11 7 -4 25
10 25 5 0 11 -4 15 -9z m35 -1 c0 -5 -4 -10 -10 -10 -5 0 -10 5 -10 10 0 6 5
10 10 10 6 0 10 -4 10 -10z m320 6 c0 -2 -7 -6 -15 -10 -8 -3 -15 -1 -15 4 0
6 7 10 15 10 8 0 15 -2 15 -4z m1208 -9 c12 -15 11 -15 -90 -23 -49 -4 -68 -2
-68 6 0 7 8 10 20 7 11 -3 18 -1 14 4 -3 5 2 9 10 9 8 0 17 -4 20 -9 8 -12 59
-6 64 8 5 15 17 14 30 -2z m146 -12 c-14 -22 -14 -24 -1 -19 18 7 33 -14 19
-28 -7 -7 -17 -6 -30 1 -15 8 -21 8 -25 -2 -2 -6 -4 1 -4 17 0 20 5 30 18 33
11 3 19 9 19 14 0 5 5 9 10 9 6 0 3 -11 -6 -25z m860 10 c3 -8 1 -15 -4 -15
-6 0 -10 7 -10 15 0 8 2 15 4 15 2 0 6 -7 10 -15z m116 -3 c0 -10 -9 -28 -19
-39 -11 -12 -17 -24 -13 -28 4 -4 -3 -3 -15 4 -31 16 -38 31 -15 31 23 0 45
23 34 35 -4 5 -1 5 6 1 6 -4 12 -2 12 3 0 6 2 11 5 11 3 0 5 -8 5 -18z m-2052
-17 c8 -18 8 -26 0 -31 -7 -4 -8 -3 -4 4 4 7 1 12 -8 12 -9 0 -16 9 -16 20 0
27 14 25 28 -5z m1126 14 c-4 -8 1 -9 16 -4 16 5 21 4 18 -6 -7 -22 -32 -21
-46 1 -10 17 -10 20 4 20 8 0 12 -5 8 -11z m1600 -5 c9 -24 9 -24 -31 -24
l-38 0 25 20 c31 24 36 24 44 4z m-3434 -9 c0 -8 -4 -15 -9 -15 -13 0 -22 16
-14 24 11 11 23 6 23 -9z m673 -27 c-8 -14 -21 -8 -26 10 -4 13 -5 11 -6 -5
-1 -22 -15 -31 -25 -15 -6 10 15 37 34 44 15 5 32 -20 23 -34z m72 28 c7 3 16
0 20 -6 5 -8 0 -11 -16 -8 -12 1 -24 9 -25 16 -1 7 0 8 2 3 3 -6 11 -8 19 -5z
m1335 -10 c0 -13 -7 -26 -15 -30 -11 -4 -15 2 -15 24 0 20 5 30 15 30 9 0 15
-9 15 -24z m1400 9 c0 -8 -4 -15 -9 -15 -5 0 -14 7 -21 15 -10 13 -9 15 9 15
12 0 21 -6 21 -15z m-3384 -10 c-23 -18 -56 -20 -56 -4 0 6 9 9 20 6 11 -3 20
-1 20 4 0 5 8 9 18 9 15 -1 15 -2 -2 -15z m1634 6 c0 -6 -9 -9 -20 -8 -11 1
-20 5 -20 9 0 4 9 8 20 8 11 0 20 -4 20 -9z m224 -15 c-8 -27 -11 -29 -24 -21
-6 4 -9 13 -6 21 7 18 -4 18 -18 -1 -7 -9 -16 -12 -25 -6 -23 15 -2 31 40 29
35 -1 39 -4 33 -22z m44 -1 c-6 -14 -17 -25 -25 -25 -17 0 -16 10 4 32 23 26
35 22 21 -7z m42 1 c0 -24 -25 -43 -35 -26 -6 10 16 50 27 50 5 0 8 -11 8 -24z
m1244 15 c3 -5 -1 -14 -8 -20 -16 -13 -32 2 -21 19 8 12 22 13 29 1z m-3464
-11 c0 6 5 8 11 4 8 -4 7 -9 -2 -15 -10 -6 -6 -11 13 -18 14 -5 29 -15 34 -22
9 -16 -73 31 -89 50 -10 12 -9 13 11 2 15 -8 22 -8 22 -1z m93 -2 c31 -17 64
-20 86 -8 13 7 22 7 26 0 3 -5 -3 -10 -15 -10 -12 0 -19 -4 -16 -9 4 -5 1 -11
-5 -13 -8 -3 -7 -12 6 -31 18 -28 6 -38 -15 -12 -13 16 -35 21 -26 6 4 -5 -3
-7 -14 -4 -11 3 -22 9 -25 13 -3 5 4 6 15 3 17 -5 18 -3 7 21 -11 24 -24 30
-53 27 -6 -1 -11 6 -11 14 0 18 11 19 40 3z m284 6 c-3 -3 -12 -4 -19 -1 -8 3
-5 6 6 6 11 1 17 -2 13 -5z m1473 -9 c0 -2 -9 -3 -19 -2 -11 0 -18 5 -15 9 4
6 34 0 34 -7z m468 -1 c12 -8 22 -22 22 -29 0 -12 -6 -11 -32 3 -34 19 -48 42
-26 42 7 0 24 -7 36 -16z m531 -15 c14 -39 14 -39 -1 -39 -6 0 -8 3 -5 7 4 3
3 11 -2 17 -14 18 -21 46 -12 46 5 0 14 -14 20 -31z m-2545 12 c6 -10 -63 -26
-72 -17 -3 3 4 6 16 6 11 0 24 5 27 10 8 12 22 13 29 1z m1441 -1 c3 -6 -1 -7
-9 -4 -18 7 -21 14 -7 14 6 0 13 -4 16 -10z m22 -12 c-3 -8 -6 -5 -6 6 -1 11
2 17 5 13 3 -3 4 -12 1 -19z m1769 9 c2 -2 1 -12 -2 -24 -4 -14 -11 -20 -21
-16 -9 4 -13 14 -9 27 4 19 4 19 -8 4 -14 -19 -43 -8 -31 12 6 10 60 8 71 -3z
m-3151 -6 c-17 -15 -55 -23 -55 -11 0 6 5 8 10 5 6 -3 10 -1 10 4 0 6 10 11
22 11 13 0 18 -4 13 -9z m1252 -13 c-3 -8 -6 -5 -6 6 -1 11 2 17 5 13 3 -3 4
-12 1 -19z m1323 -10 c0 -30 -1 -30 -14 -13 -14 19 -11 45 5 45 5 0 9 -14 9
-32z m435 22 c3 -6 -1 -13 -10 -16 -19 -8 -30 0 -20 15 8 14 22 14 30 1z
m-3312 -14 c4 -10 1 -13 -8 -9 -8 3 -12 9 -9 14 7 12 11 11 17 -5z m1942 4
c11 -17 -5 -32 -21 -19 -8 6 -14 15 -14 20 0 12 27 11 35 -1z m236 -27 c-10
-17 -10 -16 -11 3 0 23 13 41 18 25 2 -6 -1 -18 -7 -28z m1329 29 c0 -4 -5
-13 -12 -20 -7 -7 -8 -12 -2 -12 5 0 15 9 22 20 12 19 42 28 42 13 -1 -22 -30
-43 -58 -43 -33 0 -47 13 -38 35 6 15 46 21 46 7z m100 -20 c0 -16 -7 -37 -16
-48 -8 -10 -13 -13 -9 -6 3 6 -1 15 -9 18 -19 7 -21 35 -4 52 21 21 38 14 38
-16z m-3447 -9 c-4 -9 5 -24 23 -39 28 -22 28 -23 7 -24 -30 0 -88 52 -80 72
3 10 14 14 31 11 17 -4 23 -10 19 -20z m90 -9 c-2 -6 5 -19 17 -27 31 -22 8
-30 -35 -13 -25 11 -35 21 -36 38 0 22 -1 22 -9 3 -8 -19 -9 -19 -9 2 -1 15 6
23 22 25 28 4 57 -11 50 -28z m387 21 c-7 -9 -15 -13 -17 -11 -7 7 7 26 19 26
6 0 6 -6 -2 -15z m50 -4 c0 -14 -28 -33 -40 -26 -15 10 -12 23 8 28 28 8 32 7
32 -2z m1300 0 c0 -14 -18 -23 -30 -16 -6 4 -8 11 -5 16 8 12 35 12 35 0z
m1385 -25 c18 -13 18 -15 3 -21 -9 -4 -25 -2 -35 4 -14 8 -15 11 -3 11 9 1 5
5 -8 11 -13 5 -20 13 -17 19 7 11 23 4 60 -24z m284 4 c3 -25 3 -25 -18 -6
-26 23 -27 39 -3 34 9 -2 19 -14 21 -28z m-2919 12 c0 -14 -23 -32 -42 -32
-25 0 -22 19 5 30 28 11 37 12 37 2z m100 -1 c-1 -13 -28 -41 -39 -41 -8 0
-10 8 -6 21 5 15 4 19 -4 15 -6 -4 -11 -14 -11 -22 0 -17 -26 -19 -36 -2 -11
17 23 36 62 35 18 -1 34 -3 34 -6z m1191 -8 c0 -16 1 -16 8 1 6 17 9 17 23 3
9 -9 18 -13 22 -10 3 4 6 -2 6 -12 0 -15 -6 -17 -42 -11 -47 8 -64 19 -54 35
11 17 36 13 37 -6z m814 1 c-8 -6 -12 -14 -8 -17 3 -4 2 -7 -3 -7 -11 0 -34
21 -34 31 0 3 14 6 30 5 25 -1 27 -3 15 -12z m90 -4 c10 -11 16 -20 13 -20 -3
0 -13 9 -23 20 -10 11 -16 20 -13 20 3 0 13 -9 23 -20z m-754 -71 c5 -10 9
-26 9 -36 0 -15 -4 -14 -21 7 -11 14 -24 35 -29 47 -6 15 -15 21 -25 17 -10
-4 -15 0 -15 13 0 11 3 23 6 26 7 7 59 -45 75 -74z m-221 61 c12 -7 10 -9 -8
-7 -12 0 -22 5 -22 9 0 11 12 10 30 -2z m946 -26 c-4 -15 -2 -24 5 -24 7 0 10
-3 6 -6 -3 -4 0 -19 8 -33 12 -24 12 -28 -6 -39 -15 -10 -19 -9 -19 2 0 8 5
18 11 21 6 5 2 13 -11 22 -17 12 -19 17 -9 24 8 5 9 9 3 9 -6 0 -10 12 -8 28
3 35 2 34 15 26 6 -3 8 -17 5 -30z m-2276 17 c0 -14 -18 -23 -30 -16 -6 4 -8
11 -5 16 8 12 35 12 35 0z m235 -43 c5 -18 3 -28 -4 -28 -6 0 -11 9 -11 21 0
11 -4 17 -10 14 -12 -7 -12 -3 -4 20 8 20 20 9 29 -27z m2553 24 c2 -7 -7 -12
-23 -12 -24 0 -26 2 -15 15 14 17 31 16 38 -3z m-2690 -10 c5 -15 -31 -32 -47
-22 -8 4 -10 14 -7 21 4 8 2 7 -6 -2 -15 -18 -38 -14 -38 7 0 11 11 14 47 11
26 -3 49 -9 51 -15z m1312 8 c24 -15 7 -19 -20 -5 -15 8 -19 14 -10 14 8 1 22
-3 30 -9z m602 -36 c-6 -35 -12 -29 -12 14 0 23 3 32 9 24 4 -7 6 -24 3 -38z
m-1834 29 c-10 -2 -26 -2 -35 0 -10 3 -2 5 17 5 19 0 27 -2 18 -5z m1296 -2
c24 -10 28 -24 13 -48 -10 -16 -47 -17 -47 -2 0 5 -6 7 -12 3 -8 -4 -10 -3 -5
2 10 11 30 12 37 2 3 -4 12 -3 20 2 11 7 12 10 2 10 -7 0 -10 5 -6 11 5 8 -1
10 -20 7 -18 -4 -26 -1 -26 8 0 16 10 17 44 5z m848 -6 c0 -5 -5 -11 -11 -13
-6 -2 -11 4 -11 13 0 9 5 15 11 13 6 -2 11 -8 11 -13z m508 1 c0 -14 -34 -28
-44 -18 -9 8 14 32 30 32 8 0 14 -6 14 -14z m-482 -24 c-4 -15 -1 -18 18 -14
13 2 24 0 24 -6 0 -19 -18 -23 -44 -11 -25 12 -33 29 -19 42 13 14 25 7 21
-11z m188 1 c19 -25 18 -28 -16 -29 -17 -1 -30 3 -30 7 0 5 -7 6 -15 3 -8 -4
-15 -2 -15 4 0 16 33 24 42 10 6 -10 8 -8 8 5 0 9 3 17 6 17 4 0 13 -8 20 -17z
m369 -13 c16 -31 20 -70 8 -70 -15 1 -43 49 -33 55 5 3 10 11 10 17 0 6 -6 6
-15 -2 -18 -15 -30 -7 -22 15 10 24 35 17 52 -15z m-320 10 c3 -5 -1 -10 -9
-10 -8 0 -18 5 -21 10 -3 6 1 10 9 10 8 0 18 -4 21 -10z m-2539 -13 c5 -4 0
-5 -10 -1 -12 4 -17 4 -13 -2 3 -5 -2 -10 -12 -10 -10 0 -18 5 -18 11 0 13 41
14 53 2z m58 -3 c3 -9 6 -23 6 -32 -1 -13 -4 -11 -13 6 -7 12 -16 19 -21 15
-4 -4 -4 0 0 10 8 21 20 22 28 1z m2127 -1 c13 -16 12 -17 -3 -4 -10 7 -18 15
-18 17 0 8 8 3 21 -13z m-74 -9 c-3 -3 -12 -4 -19 -1 -8 3 -5 6 6 6 11 1 17
-2 13 -5z m113 2 c0 -3 -4 -8 -10 -11 -5 -3 -10 -1 -10 4 0 6 5 11 10 11 6 0
10 -2 10 -4z m158 -18 c-3 -7 -11 -13 -18 -13 -7 0 -15 6 -17 13 -3 7 4 12 17
12 13 0 20 -5 18 -12z m42 -18 c0 -11 -4 -20 -9 -20 -14 0 -23 18 -16 30 10
17 25 11 25 -10z m148 -13 c2 -19 -1 -27 -13 -27 -19 0 -30 24 -21 46 9 23 31
11 34 -19z m-98 16 c0 -17 -19 -35 -29 -29 -18 12 -12 36 9 36 11 0 20 -3 20
-7z m50 -13 c0 -15 -7 -20 -25 -20 -27 0 -32 9 -13 28 18 18 38 14 38 -8z
m118 -3 c6 -5 12 -21 12 -35 0 -23 -13 -24 -16 -1 -1 5 -2 14 -3 19 0 6 -10
10 -20 10 -21 0 -35 13 -25 23 7 6 33 -2 52 -16z m-344 4 c9 -13 -19 -32 -38
-25 -17 6 -20 16 -9 27 9 10 41 9 47 -2z m46 -31 c0 -16 -41 -33 -52 -22 -6 6
-7 15 -4 21 9 14 56 15 56 1z m50 -15 c0 -3 -9 -14 -21 -26 -16 -16 -23 -18
-35 -8 -11 9 -12 15 -3 25 11 13 59 20 59 9z m44 -11 c9 -3 16 -12 16 -19 0
-7 7 -18 15 -25 8 -7 15 -22 14 -34 0 -14 -2 -16 -6 -6 -3 8 -14 25 -24 38
-17 22 -18 22 -24 3 -5 -17 -9 -19 -31 -9 -30 14 -30 22 -2 42 26 19 22 18 42
10z m13 -136 c-3 -8 -6 -5 -6 6 -1 11 2 17 5 13 3 -3 4 -12 1 -19z"/>
<path d="M1370 2705 c14 -8 30 -14 35 -14 6 0 -1 6 -15 14 -14 8 -29 14 -35
14 -5 0 1 -6 15 -14z"/>
<path d="M1499 2835 c40 -19 76 -35 80 -35 12 1 -124 69 -139 69 -8 0 18 -15
59 -34z"/>
<path d="M1472 2811 c-10 -6 -8 -10 9 -14 13 -4 28 -2 34 4 7 7 4 8 -9 3 -13
-5 -17 -4 -12 4 8 14 -3 15 -22 3z"/>
<path d="M1625 2770 c17 -11 35 -20 40 -20 6 0 -3 9 -20 20 -16 11 -34 20 -40
20 -5 0 4 -9 20 -20z"/>
<path d="M3226 2405 c-3 -8 -1 -15 4 -15 6 0 10 7 10 15 0 8 -2 15 -4 15 -2 0
-6 -7 -10 -15z"/>
<path d="M1508 1933 c7 -3 16 -2 19 1 4 3 -2 6 -13 5 -11 0 -14 -3 -6 -6z"/>
<path d="M306 1707 c3 -10 9 -15 12 -12 3 3 0 11 -7 18 -10 9 -11 8 -5 -6z"/>
<path d="M3050 1620 c-13 -8 -12 -10 3 -10 9 0 17 5 17 10 0 12 -1 12 -20 0z"/>
<path d="M3290 1601 c0 -6 4 -13 10 -16 6 -3 7 1 4 9 -7 18 -14 21 -14 7z"/>
<path d="M3151 1588 c-1 -9 4 -20 9 -23 6 -4 8 -10 5 -15 -3 -5 8 -16 24 -24
16 -9 31 -21 33 -28 3 -7 11 -9 24 -4 17 7 15 10 -16 23 -33 14 -57 38 -72 73
-6 13 -7 13 -7 -2z"/>
<path d="M3204 1579 c-7 -12 21 -39 40 -39 6 0 3 5 -7 11 -9 6 -15 14 -12 19
3 5 1 11 -4 14 -5 4 -13 1 -17 -5z"/>
<path d="M3357 1520 c3 -11 9 -20 15 -20 5 0 4 9 -2 20 -6 11 -12 20 -14 20
-2 0 -2 -9 1 -20z"/>
<path d="M1900 1870 c34 -11 60 -11 35 0 -11 5 -29 8 -40 8 -16 0 -15 -2 5 -8z"/>
<path d="M2170 1868 c-19 -5 -39 -13 -44 -18 -7 -7 65 11 99 24 20 8 -21 4
-55 -6z"/>
<path d="M2215 1855 l-30 -14 30 5 c24 5 27 3 15 -6 -13 -10 -13 -11 2 -7 9 3
34 9 55 13 35 7 36 8 13 15 -37 11 -52 10 -85 -6z m52 -1 c-3 -3 -12 -4 -19
-1 -8 3 -5 6 6 6 11 1 17 -2 13 -5z"/>
<path d="M2185 1820 c-3 -6 1 -7 9 -4 18 7 21 14 7 14 -6 0 -13 -4 -16 -10z"/>
<path d="M2218 1739 c-21 -11 -38 -22 -38 -24 0 -3 18 4 40 15 22 11 40 23 40
25 0 7 0 7 -42 -16z"/>
<path d="M2120 1679 c-22 -18 -22 -19 -3 -10 12 6 25 16 28 21 9 15 3 12 -25
-11z"/>
<path d="M2313 1635 c-28 -15 -57 -33 -64 -42 -8 -8 9 -1 36 16 27 17 55 31
61 31 7 0 16 5 19 10 9 14 5 13 -52 -15z"/>
<path d="M2383 1629 c-33 -21 -40 -29 -25 -29 8 1 70 50 62 50 -3 0 -20 -10
-37 -21z"/>
<path d="M2456 1625 c-11 -8 -16 -15 -10 -15 5 0 18 7 28 15 11 8 16 15 10 15
-5 0 -18 -7 -28 -15z"/>
<path d="M2495 1564 l-40 -36 45 33 c25 18 47 34 49 36 2 2 0 3 -5 3 -5 0 -27
-16 -49 -36z"/>
<path d="M2242 1529 c-45 -33 -82 -63 -82 -66 0 -3 6 -1 13 4 6 5 41 31 77 58
74 55 86 65 79 65 -4 0 -43 -27 -87 -61z"/>
<path d="M2309 1503 l-24 -28 30 25 c17 14 32 26 34 28 2 1 0 2 -6 2 -5 0 -20
-12 -34 -27z"/>
<path d="M2364 1428 l-29 -33 33 29 c30 28 37 36 29 36 -2 0 -16 -15 -33 -32z"/>
<path d="M2459 1433 c-13 -16 -12 -17 4 -4 9 7 17 15 17 17 0 8 -8 3 -21 -13z"/>
<path d="M2524 1349 c-14 -28 -24 -53 -22 -55 2 -2 16 21 31 51 15 30 25 55
22 55 -3 0 -16 -23 -31 -51z"/>
<path d="M2406 1345 c-9 -26 -7 -32 5 -12 6 10 9 21 6 23 -2 3 -7 -2 -11 -11z"/>
<path d="M3966 1833 c5 -5 12 -12 16 -18 4 -6 8 -2 8 8 0 9 -7 17 -17 17 -9 0
-12 -3 -7 -7z"/>
<path d="M3980 1791 c0 -6 4 -12 10 -16 5 -3 7 -12 3 -20 -3 -10 1 -15 11 -15
14 0 15 3 4 23 -7 12 -11 25 -10 30 1 4 -2 7 -8 7 -5 0 -10 -4 -10 -9z"/>
<path d="M2132 1629 c-18 -12 -31 -24 -28 -26 2 -3 22 7 43 21 45 31 32 35
-15 5z"/>
<path d="M2796 1475 c-9 -26 -7 -32 5 -12 6 10 9 21 6 23 -2 3 -7 -2 -11 -11z"/>
<path d="M2736 1395 c-9 -26 -7 -32 5 -12 6 10 9 21 6 23 -2 3 -7 -2 -11 -11z"/>
<path d="M3001 1500 c0 -8 4 -22 9 -30 12 -18 12 -2 0 25 -6 13 -9 15 -9 5z"/>
<path d="M3230 1310 c8 -5 26 -10 39 -10 32 0 24 6 -19 14 -25 4 -31 3 -20 -4z"/>
<path d="M3305 1281 l20 -8 -20 -6 -20 -6 20 2 c24 3 23 21 -2 24 -15 2 -14 1
2 -6z"/>
<path d="M3438 1273 c7 -3 16 -2 19 1 4 3 -2 6 -13 5 -11 0 -14 -3 -6 -6z"/>
<path d="M3278 1193 c7 -3 16 -2 19 1 4 3 -2 6 -13 5 -11 0 -14 -3 -6 -6z"/>
<path d="M3323 1176 c0 -8 6 -12 14 -9 7 3 13 9 13 14 0 5 -6 9 -13 9 -8 0
-14 -6 -14 -14z"/>
<path d="M3248 1143 c6 -2 18 -2 25 0 6 3 1 5 -13 5 -14 0 -19 -2 -12 -5z"/>
<path d="M3101 1180 c0 -8 4 -24 9 -35 5 -13 9 -14 9 -5 0 8 -4 24 -9 35 -5
13 -9 14 -9 5z"/>
<path d="M3130 1246 c0 -2 8 -10 18 -17 15 -13 16 -12 3 4 -13 16 -21 21 -21
13z"/>
<path d="M3291 580 c-13 -11 -19 -20 -14 -20 6 0 18 9 28 20 23 25 17 25 -14
0z"/>
</g>
</svg>
